<svg width="28" height="68" viewBox="0 0 28 68" fill="none" xmlns="http://www.w3.org/2000/svg">
<path d="M15.1947 68H13.1947V70H15.1947V68ZM15.1947 5.6L16.6331 4.21037L13.1947 0.651345V5.6H15.1947ZM20.6668 11.264V13.264H25.3799L22.1051 9.87437L20.6668 11.264ZM0.98675 11.264H-1.01325V13.264H0.98675V11.264ZM0.98675 0.799995V-1.2H-1.01325V0.799995H0.98675ZM27.6748 0.799995H29.6748V-1.2H27.6748V0.799995ZM27.6748 68V70H29.6748V68H27.6748ZM17.1947 68V5.6H13.1947V68H17.1947ZM13.7564 6.98962L19.2284 12.6536L22.1051 9.87437L16.6331 4.21037L13.7564 6.98962ZM20.6668 9.264H0.98675V13.264H20.6668V9.264ZM2.98675 11.264V0.799995H-1.01325V11.264H2.98675ZM0.98675 2.8H27.6748V-1.2H0.98675V2.8ZM25.6748 0.799995V68H29.6748V0.799995H25.6748ZM27.6748 66H15.1947V70H27.6748V66Z" fill="#184E77"/>
</svg>
