<svg width="53" height="69" viewBox="0 0 53 69" fill="none" xmlns="http://www.w3.org/2000/svg">
<path d="M3.4225 69H1.4225V71H3.4225V69ZM3.4225 60.648L2.04528 59.1977L1.4225 59.7892V60.648H3.4225ZM30.1105 35.304L28.7385 33.8488L28.7333 33.8537L30.1105 35.304ZM35.1025 29.736L33.4486 28.6114V28.6114L35.1025 29.736ZM37.2145 25.32L35.285 24.7938L35.2764 24.8251L35.2689 24.8568L37.2145 25.32ZM34.6225 14.28L33.356 15.8279L33.3703 15.8396L33.3848 15.851L34.6225 14.28ZM16.3825 13.416L15.5947 11.5777L15.5866 11.5812L15.5785 11.5847L16.3825 13.416ZM9.5665 18.696L8.34708 20.2812L9.89225 21.4698L11.12 19.9556L9.5665 18.696ZM0.8305 11.976L-0.772992 10.7807L-1.9504 12.3601L-0.388921 13.5612L0.8305 11.976ZM11.3905 3.816L12.188 5.65018L12.2004 5.6447L11.3905 3.816ZM39.0385 3.23999L38.2232 5.06627L38.2427 5.07498L38.2624 5.08326L39.0385 3.23999ZM47.3905 9.86399L45.7264 10.9734L45.7348 10.9861L45.7435 10.9986L47.3905 9.86399ZM49.5025 26.664L51.432 27.1902L51.434 27.183L51.4359 27.1758L49.5025 26.664ZM39.2305 41.352L40.6079 42.8022L40.6143 42.796L39.2305 41.352ZM16.2865 63.144L14.5348 64.1092L15.7852 66.3784L17.6638 64.5942L16.2865 63.144ZM13.6945 58.44V56.44H10.3089L11.9428 59.4052L13.6945 58.44ZM52.9585 58.44H54.9585V56.44H52.9585V58.44ZM52.9585 69V71H54.9585V69H52.9585ZM5.4225 69V60.648H1.4225V69H5.4225ZM4.79972 62.0983L31.4877 36.7543L28.7333 33.8537L2.04528 59.1977L4.79972 62.0983ZM31.4825 36.7592C33.774 34.5986 35.5534 32.6297 36.7564 30.8606L33.4486 28.6114C32.4756 30.0423 30.927 31.7854 28.7385 33.8488L31.4825 36.7592ZM36.7564 30.8606C37.9304 29.1341 38.7662 27.4377 39.1601 25.7832L35.2689 24.8568C35.0228 25.8903 34.4506 27.1379 33.4486 28.6114L36.7564 30.8606ZM39.144 25.8462C39.5658 24.2998 39.7905 22.809 39.7905 21.384H35.7905C35.7905 22.3909 35.6312 23.5242 35.285 24.7938L39.144 25.8462ZM39.7905 21.384C39.7905 17.798 38.5262 14.8095 35.8602 12.709L33.3848 15.851C34.9428 17.0785 35.7905 18.826 35.7905 21.384H39.7905ZM35.889 12.7321C33.279 10.5966 29.646 9.688 25.3105 9.688V13.688C29.167 13.688 31.742 14.5074 33.356 15.8279L35.889 12.7321ZM25.3105 9.688C21.8071 9.688 18.559 10.3073 15.5947 11.5777L17.1703 15.2543C19.582 14.2207 22.2859 13.688 25.3105 13.688V9.688ZM15.5785 11.5847C12.6442 12.873 10.1206 14.8371 8.01299 17.4364L11.12 19.9556C12.8524 17.8189 14.8728 16.263 17.1865 15.2473L15.5785 11.5847ZM10.7859 17.1107L2.04992 10.3907L-0.388921 13.5612L8.34708 20.2812L10.7859 17.1107ZM2.43399 13.1713C4.82981 9.95743 8.05993 7.44493 12.188 5.65014L10.593 1.98186C5.88907 4.02706 2.07919 6.95456 -0.772992 10.7807L2.43399 13.1713ZM12.2004 5.6447C16.3956 3.78681 21.107 2.84 26.3665 2.84V-1.16C20.618 -1.16 15.3454 -0.122819 10.5806 1.9873L12.2004 5.6447ZM26.3665 2.84C31.0149 2.84 34.9494 3.60475 38.2232 5.06627L39.8538 1.41372C35.9596 -0.324758 31.4461 -1.16 26.3665 -1.16V2.84ZM38.2624 5.08326C41.6022 6.48952 44.0541 8.46491 45.7264 10.9734L49.0546 8.75459C46.8869 5.50309 43.7708 3.06248 39.8146 1.39672L38.2624 5.08326ZM45.7435 10.9986C47.4675 13.5012 48.3665 16.5167 48.3665 20.136H52.3665C52.3665 15.8193 51.2815 11.9868 49.0375 8.72938L45.7435 10.9986ZM48.3665 20.136C48.3665 22.1334 48.1024 24.1374 47.5691 26.1522L51.4359 27.1758C52.0546 24.8386 52.3665 22.4906 52.3665 20.136H48.3665ZM47.573 26.1378C47.0692 27.985 46.094 30.0255 44.5813 32.2643L47.8957 34.5037C49.583 32.0065 50.7838 29.567 51.432 27.1902L47.573 26.1378ZM44.5813 32.2643C43.0891 34.4729 40.8609 37.0194 37.8467 39.908L40.6143 42.796C43.7441 39.7966 46.188 37.0311 47.8957 34.5037L44.5813 32.2643ZM37.8532 39.9018L14.9092 61.6938L17.6638 64.5942L40.6078 42.8021L37.8532 39.9018ZM18.0382 62.1788L15.4462 57.4748L11.9428 59.4052L14.5348 64.1092L18.0382 62.1788ZM13.6945 60.44H52.9585V56.44H13.6945V60.44ZM50.9585 58.44V69H54.9585V58.44H50.9585ZM52.9585 67H3.4225V71H52.9585V67Z" fill="#184E77"/>
</svg>
