<svg width="52" height="69" viewBox="0 0 52 69" fill="none" xmlns="http://www.w3.org/2000/svg">
<path d="M11.4865 66.944L10.8868 68.852L10.903 68.8571L10.9192 68.8619L11.4865 66.944ZM0.1585 61.184L-1.59063 60.2142L-2.41366 61.6986L-1.08291 62.7521L0.1585 61.184ZM5.5345 51.488L6.79875 49.9383L4.94527 48.4262L3.78537 50.5182L5.5345 51.488ZM14.3665 56.288L15.0303 54.4014L14.3665 56.288ZM35.6785 55.424L36.8449 57.0486L36.8585 57.0389L36.8719 57.0289L35.6785 55.424ZM35.9665 40.64L37.1944 39.0613L35.9665 40.64ZM18.6865 37.952H16.6865V39.952H18.6865V37.952ZM18.6865 29.408L17.1553 28.1213L16.6865 28.6792V29.408H18.6865ZM37.8865 6.56L39.776 5.90445L38.6215 2.57663L36.3553 5.27331L37.8865 6.56ZM39.5185 11.264V13.264H42.3293L41.408 10.6085L39.5185 11.264ZM3.4225 11.264H1.4225V13.264H3.4225V11.264ZM3.4225 0.799995V-1.2H1.4225V0.799995H3.4225ZM49.2145 0.799995H51.2145V-1.2H49.2145V0.799995ZM49.2145 9.152L50.7457 10.4387L51.2145 9.88076V9.152H49.2145ZM30.0145 32L29.0005 33.7239L30.4579 34.5812L31.5457 33.2867L30.0145 32ZM23.4865 28.16V26.16H16.1419L22.4725 29.8839L23.4865 28.16ZM45.7585 33.728L44.4155 35.21L44.4276 35.2209L44.4399 35.2317L45.7585 33.728ZM49.1185 58.304L50.8335 59.333V59.333L49.1185 58.304ZM40.2865 66.08L41.1692 67.8747L41.1809 67.8689L40.2865 66.08ZM25.4065 66.96C20.8627 66.96 16.4137 66.3157 12.0538 65.0261L10.9192 68.8619C15.6473 70.2603 20.4783 70.96 25.4065 70.96V66.96ZM12.0862 65.036C7.79395 63.687 4.24668 61.8696 1.39991 59.6159L-1.08291 62.7521C2.21432 65.3624 6.21905 67.385 10.8868 68.852L12.0862 65.036ZM1.90763 62.1538L7.28363 52.4578L3.78537 50.5182L-1.59063 60.2142L1.90763 62.1538ZM4.27025 53.0377C6.90861 55.1901 10.0643 56.8945 13.7027 58.1746L15.0303 54.4014C11.7567 53.2495 9.02439 51.7539 6.79875 49.9383L4.27025 53.0377ZM13.7027 58.1746C17.3785 59.468 21.2194 60.112 25.2145 60.112V56.112C21.6576 56.112 18.2665 55.54 15.0303 54.4014L13.7027 58.1746ZM25.2145 60.112C29.9297 60.112 33.8854 59.1734 36.8449 57.0486L34.5121 53.7994C32.4796 55.2586 29.4593 56.112 25.2145 56.112V60.112ZM36.8719 57.0289C39.8803 54.7919 41.4225 51.6983 41.4225 47.936H37.4225C37.4225 50.4457 36.4687 52.3441 34.4851 53.8191L36.8719 57.0289ZM41.4225 47.936C41.4225 44.2844 40.0145 41.2547 37.1944 39.0613L34.7386 42.2187C36.5265 43.6093 37.4225 45.4436 37.4225 47.936H41.4225ZM37.1944 39.0613C34.3596 36.8565 30.0955 35.952 24.8305 35.952V39.952C29.8055 39.952 32.9654 40.8395 34.7386 42.2187L37.1944 39.0613ZM24.8305 35.952H18.6865V39.952H24.8305V35.952ZM20.6865 37.952V29.408H16.6865V37.952H20.6865ZM20.2177 30.6947L39.4177 7.84668L36.3553 5.27331L17.1553 28.1213L20.2177 30.6947ZM35.997 7.21554L37.629 11.9195L41.408 10.6085L39.776 5.90445L35.997 7.21554ZM39.5185 9.264H3.4225V13.264H39.5185V9.264ZM5.4225 11.264V0.799995H1.4225V11.264H5.4225ZM3.4225 2.8H49.2145V-1.2H3.4225V2.8ZM47.2145 0.799995V9.152H51.2145V0.799995H47.2145ZM47.6833 7.86531L28.4833 30.7133L31.5457 33.2867L50.7457 10.4387L47.6833 7.86531ZM31.0285 30.2761L24.5005 26.4361L22.4725 29.8839L29.0005 33.7239L31.0285 30.2761ZM23.4865 30.16H27.2305V26.16H23.4865V30.16ZM27.2305 30.16C35.2291 30.16 40.8326 31.963 44.4155 35.21L47.1015 32.246C42.4924 28.069 35.7439 26.16 27.2305 26.16V30.16ZM44.4399 35.2317C48.147 38.4826 49.9985 42.629 49.9985 47.84H53.9985C53.9985 41.531 51.69 36.2694 47.0771 32.2243L44.4399 35.2317ZM49.9985 47.84C49.9985 51.258 49.1347 54.3897 47.4035 57.275L50.8335 59.333C52.9423 55.8183 53.9985 51.974 53.9985 47.84H49.9985ZM47.4035 57.275C45.7136 60.0916 43.0849 62.4447 39.3921 64.2911L41.1809 67.8689C45.4241 65.7473 48.6835 62.9164 50.8335 59.333L47.4035 57.275ZM39.4039 64.2853C35.8589 66.0287 31.2269 66.96 25.4065 66.96V70.96C31.6181 70.96 36.9061 69.9713 41.1691 67.8747L39.4039 64.2853Z" fill="#184E77"/>
</svg>
