<svg width="68" height="134" viewBox="0 0 68 134" fill="none" xmlns="http://www.w3.org/2000/svg">
<path d="M160.264 133.185H125.529V131.857H158.935V15.6704H142.451V24.6477H132.136V15.6704H104.353V24.6477H94.0371V15.6704H66.2407V24.6477H55.9384V15.6704H28.142V24.6477H17.8397V15.6704H1.32933V53.3059H0V14.3424H19.169V23.3197H26.8127V14.3424H57.2677V23.3197H64.9114V14.3424H95.3664V23.3197H103.023V14.3424H133.465V23.3197H141.122V14.3424H160.264V133.185Z" fill="#D8F3FF"/>
<path d="M114.429 133.185H0V67.4226H1.32933V131.857H114.429V133.185Z" fill="#D8F3FF"/>
<path d="M34.5624 62.323H16.1777V43.9435H34.5624V62.323ZM17.5071 60.995H33.2331V45.2715H17.5071V60.995Z" fill="#D8F3FF"/>
<path d="M61.9472 62.323H43.5625V43.9435H61.9472V62.323ZM44.8918 60.995H60.6178V45.2715H44.8918V60.995Z" fill="#D8F3FF"/>
<path d="M34.5624 91.0212H16.1777V72.6549H34.5624V91.0212ZM17.5071 89.6932H33.2331V73.9829H17.5071V89.6932Z" fill="#D8F3FF"/>
<path d="M61.9472 91.0212H43.5625V72.6549H61.9472V91.0212ZM44.8918 89.6932H60.6178V73.9829H44.8918V89.6932Z" fill="#D8F3FF"/>
<path d="M34.5624 119.733H16.1777V101.353H34.5624V119.733ZM17.5071 118.405H33.2331V102.681H17.5071V118.405Z" fill="#D8F3FF"/>
<path d="M61.9472 119.733H43.5625V101.353H61.9472V119.733ZM44.8918 118.405H60.6178V102.681H44.8918V118.405Z" fill="#D8F3FF"/>
<path d="M28.1422 24.6477H17.8398V0H28.1422V24.6477ZM19.1692 23.3197H26.8128V1.328H19.1692V23.3197Z" fill="#D8F3FF"/>
<path d="M66.2408 24.6477H55.9385V0H66.2408V24.6477ZM57.2678 23.3197H64.9115V1.328H57.2678V23.3197Z" fill="#D8F3FF"/>
</svg>
