<svg width="143" height="134" viewBox="0 0 143 134" fill="none" xmlns="http://www.w3.org/2000/svg">
<path d="M142.264 133.185H107.529V131.857H140.935V15.6704H124.451V24.6477H114.136V15.6704H86.3527V24.6477H76.0371V15.6704H48.2407V24.6477H37.9384V15.6704H10.142V24.6477H-0.16033V15.6704H-16.6707V53.3059H-18V14.3424H1.169V23.3197H8.81267V14.3424H39.2677V23.3197H46.9114V14.3424H77.3664V23.3197H85.0233V14.3424H115.465V23.3197H123.122V14.3424H142.264V133.185Z" fill="#D8F3FF"/>
<path d="M96.429 133.185H-18V67.4225H-16.6707V131.857H96.429V133.185Z" fill="#D8F3FF"/>
<path d="M16.5626 62.323H-1.82202V43.9435H16.5626V62.323ZM-0.492688 60.995H15.2333V45.2715H-0.492688V60.995Z" fill="#D8F3FF"/>
<path d="M43.9469 62.323H25.5623V43.9435H43.9469V62.323ZM26.8916 60.995H42.6176V45.2715H26.8916V60.995Z" fill="#D8F3FF"/>
<path d="M71.3312 62.323H52.9465V43.9435H71.3312V62.323ZM54.2759 60.995H70.0019V45.2715H54.2759V60.995Z" fill="#D8F3FF"/>
<path d="M98.7155 62.323H80.3308V43.9435H98.7155V62.323ZM81.6601 60.995H97.3862V45.2715H81.6601V60.995Z" fill="#D8F3FF"/>
<path d="M126.1 62.323H107.715V43.9435H126.1V62.323ZM109.044 60.995H124.77V45.2715H109.044V60.995Z" fill="#D8F3FF"/>
<path d="M16.5626 91.0212H-1.82202V72.6549H16.5626V91.0212ZM-0.492688 89.6932H15.2333V73.9829H-0.492688V89.6932Z" fill="#D8F3FF"/>
<path d="M43.9469 91.0212H25.5623V72.6549H43.9469V91.0212ZM26.8916 89.6932H42.6176V73.9829H26.8916V89.6932Z" fill="#D8F3FF"/>
<path d="M71.3312 91.0212H52.9465V72.6549H71.3312V91.0212ZM54.2759 89.6932H70.0019V73.9829H54.2759V89.6932Z" fill="#D8F3FF"/>
<path d="M98.7155 91.0212H80.3308V72.6549H98.7155V91.0212ZM81.6601 89.6932H97.3862V73.9829H81.6601V89.6932Z" fill="#D8F3FF"/>
<path d="M126.1 91.0212H107.715V72.6549H126.1V91.0212ZM109.044 89.6932H124.77V73.9829H109.044V89.6932Z" fill="#D8F3FF"/>
<path d="M16.5626 119.732H-1.82202V101.353H16.5626V119.732ZM-0.492688 118.404H15.2333V102.681H-0.492688V118.404Z" fill="#D8F3FF"/>
<path d="M43.9469 119.732H25.5623V101.353H43.9469V119.732ZM26.8916 118.404H42.6176V102.681H26.8916V118.404Z" fill="#D8F3FF"/>
<path d="M71.3312 119.732H52.9465V101.353H71.3312V119.732ZM54.2759 118.404H70.0019V102.681H54.2759V118.404Z" fill="#D8F3FF"/>
<path d="M98.7155 119.732H80.3308V101.353H98.7155V119.732ZM81.6601 118.404H97.3862V102.681H81.6601V118.404Z" fill="#D8F3FF"/>
<path d="M126.1 119.732H107.715V101.353H126.1V119.732ZM109.044 118.404H124.77V102.681H109.044V118.404Z" fill="#D8F3FF"/>
<path d="M10.1422 24.6477H-0.160156V0H10.1422V24.6477ZM1.16918 23.3197H8.81284V1.328H1.16918V23.3197Z" fill="#D8F3FF"/>
<path d="M48.2408 24.6477H37.9385V0H48.2408V24.6477ZM39.2678 23.3197H46.9115V1.328H39.2678V23.3197Z" fill="#D8F3FF"/>
<path d="M86.3527 24.6477H76.0371V0H86.3527V24.6477ZM77.3664 23.3197H85.0234V1.328H77.3664V23.3197Z" fill="#D8F3FF"/>
<path d="M124.451 24.6477H114.136V0H124.451V24.6477ZM115.465 23.3197H123.122V1.328H115.465V23.3197Z" fill="#D8F3FF"/>
</svg>
