<svg width="161" height="134" viewBox="0 0 161 134" fill="none" xmlns="http://www.w3.org/2000/svg">
<path d="M160.264 133.185H125.529V131.857H158.935V15.6703H142.451V24.6476H132.136V15.6703H104.353V24.6476H94.0371V15.6703H66.2407V24.6476H55.9384V15.6703H28.142V24.6476H17.8397V15.6703H1.32933V53.3058H0V14.3423H19.169V23.3196H26.8127V14.3423H57.2677V23.3196H64.9114V14.3423H95.3664V23.3196H103.023V14.3423H133.465V23.3196H141.122V14.3423H160.264V133.185Z" fill="#263238"/>
<path d="M114.429 133.185H0V67.4226H1.32933V131.857H114.429V133.185Z" fill="#263238"/>
<path d="M34.5626 62.3229H16.178V43.9434H34.5626V62.3229ZM17.5073 60.9949H33.2333V45.2714H17.5073V60.9949Z" fill="#263238"/>
<path d="M61.9469 62.3229H43.5623V43.9434H61.9469V62.3229ZM44.8916 60.9949H60.6176V45.2714H44.8916V60.9949Z" fill="#263238"/>
<path d="M89.3312 62.3229H70.9465V43.9434H89.3312V62.3229ZM72.2759 60.9949H88.0019V45.2714H72.2759V60.9949Z" fill="#263238"/>
<path d="M116.716 62.3229H98.3308V43.9434H116.716V62.3229ZM99.6601 60.9949H115.386V45.2714H99.6601V60.9949Z" fill="#263238"/>
<path d="M144.1 62.3229H125.715V43.9434H144.1V62.3229ZM127.044 60.9949H142.77V45.2714H127.044V60.9949Z" fill="#263238"/>
<path d="M34.5626 91.021H16.178V72.6548H34.5626V91.021ZM17.5073 89.693H33.2333V73.9828H17.5073V89.693Z" fill="#263238"/>
<path d="M61.9469 91.021H43.5623V72.6548H61.9469V91.021ZM44.8916 89.693H60.6176V73.9828H44.8916V89.693Z" fill="#263238"/>
<path d="M89.3312 91.021H70.9465V72.6548H89.3312V91.021ZM72.2759 89.693H88.0019V73.9828H72.2759V89.693Z" fill="#263238"/>
<path d="M116.716 91.021H98.3308V72.6548H116.716V91.021ZM99.6601 89.693H115.386V73.9828H99.6601V89.693Z" fill="#263238"/>
<path d="M144.1 91.021H125.715V72.6548H144.1V91.021ZM127.044 89.693H142.77V73.9828H127.044V89.693Z" fill="#263238"/>
<path d="M34.5626 119.733H16.178V101.353H34.5626V119.733ZM17.5073 118.405H33.2333V102.681H17.5073V118.405Z" fill="#263238"/>
<path d="M61.9469 119.733H43.5623V101.353H61.9469V119.733ZM44.8916 118.405H60.6176V102.681H44.8916V118.405Z" fill="#263238"/>
<path d="M89.3312 119.733H70.9465V101.353H89.3312V119.733ZM72.2759 118.405H88.0019V102.681H72.2759V118.405Z" fill="#263238"/>
<path d="M116.716 119.733H98.3308V101.353H116.716V119.733ZM99.6601 118.405H115.386V102.681H99.6601V118.405Z" fill="#263238"/>
<path d="M144.1 119.733H125.715V101.353H144.1V119.733ZM127.044 118.405H142.77V102.681H127.044V118.405Z" fill="#263238"/>
<path d="M28.1422 24.6477H17.8398V0H28.1422V24.6477ZM19.1692 23.3197H26.8128V1.328H19.1692V23.3197Z" fill="#263238"/>
<path d="M66.2408 24.6477H55.9385V0H66.2408V24.6477ZM57.2678 23.3197H64.9115V1.328H57.2678V23.3197Z" fill="#263238"/>
<path d="M104.353 24.6477H94.0371V0H104.353V24.6477ZM95.3664 23.3197H103.023V1.328H95.3664V23.3197Z" fill="#263238"/>
<path d="M142.451 24.6477H132.136V0H142.451V24.6477ZM133.465 23.3197H141.122V1.328H133.465V23.3197Z" fill="#263238"/>
</svg>
