<svg width="122" height="122" viewBox="0 0 122 122" fill="none" xmlns="http://www.w3.org/2000/svg">
<path d="M108.94 67.8322C112.985 42.6604 95.8379 18.9787 70.6407 14.9378C45.4435 10.8969 21.7381 28.027 17.6932 53.1989C13.6482 78.3708 30.7955 102.052 55.9926 106.093C81.1898 110.134 104.895 93.0041 108.94 67.8322Z" fill="#537FAB"/>
<path d="M63.2834 107.311C54.0095 107.311 44.9441 104.562 37.2342 99.4137C29.5244 94.265 23.5167 86.9471 19.9714 78.3863C16.4261 69.8254 15.5026 60.4063 17.3176 51.321C19.1327 42.2356 23.6048 33.8923 30.168 27.3468C36.7312 20.8014 45.0904 16.348 54.188 14.5502C63.2856 12.7525 72.7126 13.6911 81.2759 17.2475C89.8393 20.8038 97.1543 26.8179 102.295 34.5287C107.436 42.2396 110.171 51.3006 110.156 60.5651C110.124 72.9669 105.173 84.8506 96.3873 93.6125C87.6016 102.374 75.6976 107.3 63.2834 107.311ZM63.2834 15.0015C54.2787 15.0015 45.476 17.6682 37.988 22.6646C30.4999 27.6609 24.6625 34.7627 21.2136 43.0724C17.7646 51.3821 16.8588 60.5267 18.6107 69.3504C20.3626 78.1742 24.6936 86.2812 31.0562 92.6467C37.4189 99.0123 45.5276 103.351 54.3577 105.114C63.1878 106.877 72.3428 105.985 80.6659 102.552C88.9889 99.1184 96.1064 93.2972 101.119 85.824C106.131 78.3507 108.813 69.5608 108.826 60.5651C108.833 48.4902 104.04 36.9069 95.4989 28.3624C86.9584 19.818 75.3704 15.012 63.2834 15.0015Z" fill="#537FAB"/>
<path d="M78.6555 103.021C102.145 93.0557 113.1 65.9543 103.125 42.4885C93.1491 19.0228 66.0205 8.07862 42.5312 18.0441C19.0418 28.0095 8.08671 55.1109 18.0622 78.5767C28.0376 102.042 55.1662 112.987 78.6555 103.021Z" fill="white"/>
<path d="M60.5851 107.311C51.3112 107.311 42.2458 104.562 34.536 99.4137C26.8262 94.265 20.8185 86.9471 17.2732 78.3863C13.7279 69.8254 12.8044 60.4063 14.6194 51.321C16.4345 42.2356 20.9065 33.8923 27.4697 27.3468C34.0329 20.8014 42.3922 16.348 51.4898 14.5502C60.5874 12.7525 70.0144 13.6911 78.5778 17.2475C87.1411 20.8038 94.4561 26.8179 99.5969 34.5287C104.738 42.2396 107.473 51.3006 107.457 60.5651C107.426 72.9669 102.475 84.8506 93.689 93.6125C84.9033 102.374 72.9994 107.3 60.5851 107.311ZM60.5851 15.0015C51.5804 15.0015 42.7778 17.6682 35.2897 22.6646C27.8017 27.6609 21.9643 34.7627 18.5153 43.0724C15.0663 51.3821 14.1606 60.5267 15.9125 69.3504C17.6644 78.1742 21.9953 86.2812 28.358 92.6467C34.7206 99.0123 42.8294 103.351 51.6595 105.114C60.4896 106.877 69.6446 105.985 77.9677 102.552C86.2907 99.1184 93.4081 93.2972 98.4204 85.824C103.433 78.3507 106.115 69.5608 106.128 60.5651C106.135 48.4902 101.341 36.9069 92.8007 28.3624C84.2601 19.818 72.6721 15.012 60.5851 15.0015Z" fill="#537FAB"/>
<path d="M60.5851 100.525C82.713 100.525 100.651 82.6045 100.651 60.4988C100.651 38.3931 82.713 20.4729 60.5851 20.4729C38.4572 20.4729 20.519 38.3931 20.519 60.4988C20.519 82.6045 38.4572 100.525 60.5851 100.525Z" fill="white"/>
<path d="M60.5848 101.189C52.523 101.189 44.6424 98.7994 37.9404 94.3233C31.2383 89.8473 26.0161 83.4856 22.9347 76.0434C19.8532 68.6013 19.051 60.4131 20.6296 52.5153C22.2082 44.6175 26.0966 37.365 31.8027 31.6758C37.5089 25.9865 44.7762 22.1162 52.6851 20.5547C60.5939 18.9931 68.7887 19.8106 76.2323 22.9035C83.6759 25.9965 90.0336 31.2259 94.5011 37.93C98.9685 44.6341 101.345 52.5114 101.329 60.5651C101.297 71.3432 96.9919 81.6697 89.3555 89.2835C81.7191 96.8973 71.3738 101.178 60.5848 101.189ZM60.5848 21.1235C52.7921 21.1235 45.1744 23.4312 38.6941 27.7549C32.2138 32.0785 27.1619 38.2242 24.1768 45.4152C21.1916 52.6062 20.4072 60.5198 21.9226 68.1561C23.4381 75.7923 27.1854 82.8084 32.691 88.3177C38.1966 93.8271 45.2134 97.5824 52.8547 99.1092C60.496 100.636 68.419 99.8657 75.6222 96.8957C82.8255 93.9256 88.9857 88.8892 93.3247 82.4227C97.6636 75.9562 99.9864 68.35 99.9996 60.5651C100.007 50.1139 95.8584 40.0877 88.467 32.6914C81.0757 25.295 71.0465 21.1341 60.5848 21.1235Z" fill="#537FAB"/>
<path d="M72.0836 92.9018L69.6244 86.5938C65.1933 88.0812 61.3603 87.9439 58.1256 86.1821C54.8909 84.4203 52.1392 80.879 49.8704 75.5581L59.0695 70.2461C59.7632 72.052 60.6548 73.7756 61.7281 75.3855C62.3646 76.4124 63.2891 77.2298 64.3868 77.736C65.267 78.081 66.2451 78.081 67.1252 77.736C68.3083 77.2712 68.9331 76.5674 68.9729 75.6113C69.0269 74.6741 68.8773 73.7363 68.5343 72.8623C67.8488 70.9322 66.5925 69.2557 64.9318 68.0549C63.1152 66.8591 61.1485 65.908 59.0827 65.2263L53.0476 63.1015C51.3796 62.4779 49.7544 61.746 48.1822 60.9103C46.6325 60.0683 45.2314 58.9782 44.0347 57.6833C42.6423 56.1317 41.5594 54.3287 40.8443 52.3713C40.0721 50.6723 39.6549 48.8338 39.6184 46.9683C39.5818 45.1027 39.9266 43.2494 40.6316 41.5215C42.2389 38.1476 45.0227 35.4751 48.4613 34.005L46.1085 27.9493L49.352 26.6213L51.6916 32.6106C53.8093 31.8036 56.1071 31.5878 58.3383 31.9864C60.115 32.3598 61.7642 33.1881 63.1239 34.3901C64.4356 35.5414 65.5651 36.8847 66.4739 38.3741C67.3214 39.7823 68.0719 41.2465 68.7204 42.7565L59.3087 47.8029C58.6707 46.289 57.9794 44.9876 57.4609 43.8986C57.0104 42.9906 56.3496 42.203 55.5334 41.6012C55.1567 41.3869 54.7306 41.2743 54.2971 41.2743C53.8636 41.2743 53.4376 41.3869 53.0609 41.6012C52.5719 41.7665 52.1393 42.0658 51.8126 42.465C51.4858 42.8642 51.2781 43.3472 51.2131 43.8588C51.0446 44.8577 51.1409 45.8833 51.4923 46.8335C52.0992 48.6493 53.3403 50.1861 54.9884 51.1628C56.5265 52.0192 58.1261 52.7605 59.774 53.3805L65.5832 55.4522C67.5209 56.197 69.4005 57.0847 71.2063 58.1082C73.0084 59.1295 74.6407 60.4242 76.045 61.9461C77.5864 63.6704 78.7864 65.6713 79.5811 67.8424C80.4453 69.9709 80.7916 72.2739 80.5914 74.5621C80.3943 76.7646 79.6194 78.8763 78.3448 80.6842C76.9397 82.6286 75.077 84.1976 72.9211 85.2525L75.4069 91.6269L72.0836 92.9018Z" fill="#537FAB"/>
<path d="M72.0837 93.566C71.95 93.568 71.8191 93.5281 71.7094 93.4519C71.5997 93.3756 71.5167 93.2669 71.4721 93.141L69.2389 87.4173C64.8654 88.7453 61.0103 88.5328 57.8066 86.7666C54.6029 85.0003 51.5987 81.2288 49.259 75.7442C49.195 75.5948 49.188 75.4271 49.2395 75.2729C49.2909 75.1187 49.3972 74.9887 49.5381 74.9076L58.7372 69.5956C58.8226 69.5562 58.9156 69.5359 59.0096 69.5359C59.1037 69.5359 59.1967 69.5562 59.2822 69.5956C59.3704 69.6273 59.4513 69.6766 59.5198 69.7405C59.5884 69.8044 59.6432 69.8816 59.681 69.9674C60.3816 71.7282 61.2731 73.4071 62.3396 74.974C62.8961 75.8863 63.7037 76.6193 64.666 77.0855C65.3955 77.3773 66.2096 77.3773 66.9392 77.0855C68.1754 76.6074 68.3483 75.9832 68.3615 75.5583C68.4094 74.7114 68.2733 73.8643 67.9628 73.0749C67.3307 71.2687 66.162 69.6982 64.6128 68.573C62.8451 67.4116 60.9321 66.4873 58.9232 65.824L52.8748 63.6992C51.1814 63.0593 49.5299 62.3142 47.9297 61.4682C46.3098 60.5944 44.8455 59.4591 43.5961 58.1083C42.1529 56.4826 41.0298 54.5993 40.286 52.5573C39.4809 50.7782 39.0469 48.854 39.0103 46.902C38.9738 44.9499 39.3355 43.0108 40.0733 41.2029C41.6464 37.8708 44.3362 35.1931 47.6771 33.6333L45.5369 28.1354C45.4751 27.9714 45.4793 27.7898 45.5487 27.6288C45.6181 27.4678 45.7473 27.34 45.9091 27.2722L49.166 25.9442C49.2453 25.9082 49.3314 25.8896 49.4185 25.8896C49.5057 25.8896 49.5918 25.9082 49.6711 25.9442C49.7541 25.977 49.8289 26.0271 49.8908 26.0913C49.9528 26.1554 50.0002 26.2321 50.03 26.316L52.1437 31.721C54.1828 31.0639 56.3557 30.936 58.458 31.3491C60.3476 31.744 62.1021 32.6226 63.5494 33.8989C64.9132 35.1179 66.0832 36.5375 67.0189 38.1087C67.8796 39.5389 68.6434 41.0252 69.3053 42.5575C69.3721 42.71 69.3791 42.882 69.325 43.0394C69.2708 43.1968 69.1594 43.3281 69.0129 43.4074L59.5879 48.4538C59.5047 48.4929 59.414 48.5131 59.3221 48.5131C59.2302 48.5131 59.1394 48.4929 59.0562 48.4538C58.9693 48.4265 58.8895 48.3801 58.8228 48.3181C58.7561 48.2561 58.7041 48.1799 58.6707 48.0952C58.0459 46.6211 57.4344 45.3197 56.8495 44.244C56.4514 43.4343 55.8686 42.7293 55.148 42.1856C54.8666 42.0249 54.5482 41.9404 54.2241 41.9404C53.9 41.9404 53.5815 42.0249 53.3002 42.1856C52.9008 42.2968 52.5447 42.5264 52.2788 42.8442C52.013 43.1619 51.85 43.5528 51.8113 43.9651C51.6545 44.856 51.7371 45.7725 52.0506 46.6211C52.6033 48.2874 53.7351 49.7007 55.241 50.6051C56.7538 51.4459 58.3267 52.1738 59.9468 52.7831L65.7294 54.8547C67.7065 55.5976 69.626 56.4853 71.4721 57.5107C73.3288 58.5809 75.0137 59.9239 76.4704 61.4947C78.0621 63.2861 79.3063 65.3576 80.1394 67.6036C81.0363 69.8305 81.3961 72.2371 81.1896 74.6287C80.9792 76.9456 80.1632 79.1667 78.8234 81.0695C77.4801 82.9389 75.7245 84.4747 73.6922 85.5581L75.9653 91.388C76.0253 91.5509 76.0253 91.7298 75.9653 91.8927C75.9304 91.9742 75.8794 92.048 75.8155 92.1096C75.7516 92.1712 75.676 92.2193 75.5931 92.2512L72.3362 93.5128C72.2561 93.5462 72.1704 93.5643 72.0837 93.566ZM69.6244 85.93C69.7595 85.929 69.8916 85.9692 70.0032 86.0451C70.1148 86.121 70.2006 86.2291 70.2492 86.3549L72.4691 92.052L74.4764 91.2685L72.2432 85.505C72.182 85.3544 72.1795 85.1864 72.236 85.034C72.2926 84.8816 72.4042 84.7559 72.5489 84.6816C74.6059 83.6724 76.3855 82.1773 77.7333 80.3258C78.9427 78.6128 79.6765 76.6105 79.8602 74.5224C80.0518 72.3345 79.724 70.1323 78.9032 68.0949C78.13 66.0036 76.9711 64.0757 75.4868 62.4111C74.1262 60.9402 72.5481 59.6862 70.8075 58.6927C69.031 57.6746 67.1829 56.7869 65.2775 56.0367L59.4816 53.9783C57.7984 53.345 56.1635 52.5905 54.5897 51.7207C52.8117 50.6642 51.472 49.0056 50.8143 47.0461C50.4162 45.9871 50.3061 44.8415 50.4953 43.7261C50.5765 43.0994 50.831 42.5076 51.2302 42.0173C51.6293 41.5271 52.1575 41.1577 52.7552 40.9506C53.2309 40.6979 53.7643 40.5736 54.3029 40.5899C54.8414 40.6062 55.3664 40.7626 55.8259 41.0436C56.7396 41.6979 57.4752 42.5698 57.9662 43.58C58.4846 44.5362 59.0163 45.6384 59.5614 46.8735L67.8033 42.4512C67.2198 41.1706 66.5629 39.9246 65.8358 38.7196C64.966 37.264 63.8815 35.9478 62.6188 34.8152C61.3371 33.6968 59.7904 32.9242 58.1257 32.5709C56.0312 32.2135 53.8793 32.4198 51.8911 33.1685C51.7287 33.225 51.5508 33.2164 51.3946 33.1446C51.2385 33.0728 51.1162 32.9433 51.0536 32.7834L48.9665 27.405L46.946 28.1885L49.0729 33.6333C49.1297 33.7892 49.1273 33.9605 49.066 34.1148C49.0048 34.269 48.8889 34.3954 48.7406 34.47C45.4196 35.8794 42.7292 38.4536 41.1767 41.7076C40.5128 43.3558 40.1917 45.1218 40.2328 46.8981C40.2739 48.6743 40.6765 50.4235 41.4159 52.0394C42.0957 53.9256 43.1288 55.6653 44.4601 57.1655C45.6125 58.4063 46.9594 59.4514 48.4481 60.2597C49.9918 61.0767 51.5858 61.7952 53.2204 62.4111L59.2556 64.5359C61.3753 65.233 63.3917 66.2111 65.2509 67.4442C67.0153 68.7084 68.3548 70.4771 69.0927 72.5172C69.4728 73.484 69.6405 74.5211 69.5845 75.5583C69.5268 76.1814 69.2773 76.7713 68.8702 77.2469C68.4631 77.7226 67.9185 78.0605 67.3113 78.2143C66.2785 78.6252 65.1272 78.6252 64.0944 78.2143C62.8778 77.6651 61.851 76.7688 61.1433 75.638C60.1783 74.2022 59.3631 72.6714 58.7106 71.0696L50.7346 75.6645C52.9014 80.5648 55.5069 83.8848 58.458 85.505C61.4091 87.1251 65.1047 87.2845 69.4383 85.8636L69.6244 85.93Z" fill="#537FAB"/>
<path d="M70.914 92.9018L68.4548 86.5938C64.0236 88.0812 60.1863 87.9439 56.9427 86.1821C53.6991 84.4203 50.9518 80.879 48.7008 75.5581L57.8865 70.2461C58.5799 72.0522 59.4715 73.7758 60.5452 75.3855C61.1841 76.4104 62.1079 77.2271 63.2039 77.736C64.084 78.081 65.0622 78.081 65.9423 77.736C67.1387 77.2712 67.7635 76.5674 67.8034 75.6113C67.8527 74.6731 67.6985 73.7354 67.3514 72.8623C66.6755 70.9307 65.4227 69.2528 63.7622 68.0549C61.9441 66.8616 59.9778 65.9107 57.9132 65.2263L51.8779 63.1015C50.21 62.4779 48.5848 61.746 47.0126 60.9103C45.4586 60.0687 44.0531 58.9786 42.8518 57.6833C41.4683 56.1276 40.3905 54.3255 39.6747 52.3713C38.8994 50.6731 38.4806 48.8344 38.444 46.9684C38.4074 45.1024 38.7539 43.2486 39.462 41.5215C41.0693 38.1476 43.8531 35.4751 47.2917 34.005L44.9255 27.9493L48.1824 26.6213L50.5221 32.6106C52.6398 31.8036 54.9375 31.5878 57.1687 31.9864C58.9455 32.3598 60.5946 33.1881 61.9543 34.3901C63.2653 35.5385 64.3908 36.8823 65.2909 38.3741C66.1478 39.7793 66.903 41.2438 67.5508 42.7565L58.1391 47.8029C57.4877 46.289 56.8098 44.9876 56.278 43.8986C55.8317 42.9918 55.1755 42.2042 54.3638 41.6012C53.987 41.3869 53.561 41.2743 53.1275 41.2743C52.694 41.2743 52.268 41.3869 51.8912 41.6012C51.3964 41.7564 50.9578 42.0528 50.6295 42.454C50.3012 42.8551 50.0974 43.3434 50.0434 43.8588C49.875 44.8577 49.9713 45.8833 50.3226 46.8335C50.9346 48.6426 52.1686 50.1765 53.8055 51.1628C55.3482 52.0193 56.9521 52.7606 58.6044 53.3805L64.4002 55.4522C66.3434 56.1941 68.2277 57.082 70.0367 58.1082C71.8364 59.133 73.4682 60.4273 74.8754 61.9461C76.4122 63.6738 77.6116 65.6737 78.4114 67.8424C79.2694 69.9727 79.6154 72.2741 79.4218 74.5621C79.2247 76.7646 78.4498 78.8763 77.1752 80.6842C75.7717 82.6335 73.9088 84.2071 71.7515 85.2658L74.2373 91.6402L70.914 92.9018Z" fill="white"/>
<path d="M70.9138 93.566C70.7802 93.568 70.6492 93.5281 70.5395 93.4519C70.4298 93.3756 70.3468 93.2669 70.3023 93.141L68.069 87.4173C63.6822 88.7453 59.8404 88.5328 56.6235 86.7666C53.4065 85.0003 50.4288 81.2288 48.0892 75.7442C48.0251 75.5948 48.0182 75.4271 48.0696 75.2729C48.1211 75.1187 48.2273 74.9887 48.3683 74.9076L57.5673 69.5956C57.6528 69.5562 57.7457 69.5359 57.8398 69.5359C57.9339 69.5359 58.0268 69.5562 58.1123 69.5956C58.2883 69.6635 58.4311 69.7967 58.5111 69.9674C59.1894 71.7234 60.054 73.4018 61.09 74.974C61.6546 75.8844 62.4658 76.6165 63.4296 77.0855C64.1545 77.3779 64.9647 77.3779 65.6895 77.0855C66.9391 76.6074 67.1119 75.9832 67.1252 75.5583C67.1665 74.7118 67.0307 73.866 66.7264 73.0749C66.0892 71.2678 64.9161 69.6974 63.3632 68.573C61.5988 67.4141 59.6906 66.4899 57.6869 65.824L51.6385 63.6992C49.943 63.0644 48.2911 62.3191 46.6934 61.4682C45.0713 60.5977 43.6065 59.462 42.3597 58.1083C40.9078 56.489 39.7837 54.6039 39.0497 52.5573C38.2446 50.7782 37.8106 48.854 37.774 46.902C37.7374 44.9499 38.0991 43.0108 38.837 41.2029C40.4063 37.8682 43.0973 35.1894 46.4408 33.6333L44.3005 28.1354C44.2645 28.0561 44.2459 27.9701 44.2459 27.8831C44.2459 27.796 44.2645 27.71 44.3005 27.6307C44.3692 27.4693 44.4979 27.3408 44.6595 27.2722L47.9163 25.9442C47.9957 25.9082 48.0818 25.8896 48.1689 25.8896C48.256 25.8896 48.3421 25.9082 48.4215 25.9442C48.5031 25.9791 48.577 26.0299 48.6386 26.0938C48.7003 26.1577 48.7484 26.2332 48.7804 26.316L50.8807 31.721C52.9271 31.0379 55.114 30.887 57.235 31.2827C59.1207 31.6774 60.8709 32.5562 62.313 33.8325C63.6769 35.0515 64.8468 36.4711 65.7826 38.0423C66.6525 39.4696 67.4209 40.9562 68.0823 42.4911C68.1491 42.6436 68.1561 42.8156 68.1019 42.973C68.0478 43.1304 67.9364 43.2617 67.7899 43.341L58.3649 48.3874C58.2817 48.4265 58.1909 48.4467 58.099 48.4467C58.0071 48.4467 57.9164 48.4265 57.8332 48.3874C57.7454 48.3586 57.6646 48.3118 57.596 48.2501C57.5273 48.1883 57.4722 48.113 57.4343 48.0288C56.8938 46.7147 56.286 45.4293 55.6131 44.1776C55.2234 43.3626 54.6391 42.6557 53.9116 42.1192C53.6328 41.9584 53.3164 41.8737 52.9944 41.8737C52.6724 41.8737 52.356 41.9584 52.0772 42.1192C51.691 42.2345 51.3476 42.4611 51.0898 42.7706C50.8321 43.0801 50.6715 43.4586 50.6281 43.8589C50.4713 44.7498 50.5539 45.6663 50.8674 46.5149C51.4201 48.1811 52.552 49.5945 54.0579 50.4989C55.5648 51.3421 57.1334 52.0701 58.7504 52.6768L64.5463 54.7485C66.5191 55.4914 68.4342 56.3791 70.2757 57.4045C72.1347 58.4713 73.8201 59.8147 75.274 61.3885C76.8745 63.1757 78.1236 65.2481 78.9562 67.4973C79.8479 69.7257 80.2075 72.131 80.0065 74.5224C79.7876 76.8374 78.9724 79.0564 77.6402 80.9632C76.2969 82.8327 74.5413 84.3685 72.509 85.4519L74.7689 91.2818C74.8013 91.3629 74.8173 91.4495 74.8161 91.5368C74.8149 91.6241 74.7965 91.7103 74.7619 91.7905C74.7273 91.8707 74.6773 91.9432 74.6146 92.0041C74.552 92.0649 74.4779 92.1128 74.3966 92.145L71.1398 93.4066C71.0748 93.4731 70.9983 93.5271 70.9138 93.566ZM68.4546 85.93C68.5892 85.9308 68.7204 85.9717 68.8317 86.0474C68.9429 86.1231 69.0292 86.2301 69.0793 86.3549L71.2993 92.052L73.3066 91.2685L71.0733 85.505C71.0121 85.3544 71.0096 85.1864 71.0662 85.034C71.1227 84.8816 71.2343 84.7559 71.379 84.6816C73.436 83.6724 75.2156 82.1773 76.5635 80.3258C77.7618 78.6071 78.4945 76.6078 78.6904 74.5224C78.8755 72.3347 78.5478 70.134 77.7333 68.0949C76.9581 66.0046 75.7995 64.077 74.3169 62.4111C72.9563 60.9402 71.3782 59.6862 69.6376 58.6927C67.8553 57.677 66.0028 56.7895 64.0943 56.0367L58.3117 53.9783C56.6285 53.345 54.9936 52.5905 53.4198 51.7207C51.6415 50.6612 50.2985 49.0042 49.6311 47.0461C49.2375 45.9859 49.132 44.8403 49.3254 43.7261C49.407 43.1014 49.66 42.5115 50.0565 42.0216C50.4531 41.5317 50.9776 41.161 51.572 40.9506C52.0501 40.698 52.5857 40.5739 53.1263 40.5902C53.6669 40.6064 54.194 40.7627 54.6561 41.0436C55.5697 41.6979 56.3053 42.5698 56.7963 43.58C57.3147 44.5229 57.8465 45.6252 58.3915 46.8735L66.6334 42.4512C66.0474 41.1718 65.3906 39.926 64.6659 38.7196C63.7912 37.2674 62.7073 35.9519 61.4489 34.8152C60.1656 33.6992 58.6195 32.927 56.9558 32.5709C54.857 32.2111 52.7002 32.4174 50.7079 33.1685C50.5474 33.2245 50.3714 33.2155 50.2174 33.1435C50.0634 33.0716 49.9436 32.9423 49.8837 32.7834L47.8233 27.4448L45.8027 28.2283L47.9163 33.6731C47.9795 33.8285 47.9802 34.0023 47.9183 34.1581C47.8564 34.314 47.7366 34.44 47.584 34.5098C44.2905 35.9212 41.6216 38.4788 40.0733 41.7076C39.4094 43.3558 39.0883 45.1218 39.1294 46.8981C39.1706 48.6743 39.5731 50.4235 40.3125 52.0394C40.9923 53.9256 42.0255 55.6653 43.3567 57.1655C44.5035 58.4124 45.8515 59.4584 47.3447 60.2597C48.8885 61.0767 50.4824 61.7952 52.117 62.4111L58.1522 64.5359C60.2719 65.233 62.2884 66.2111 64.1475 67.4442C65.9162 68.7154 67.256 70.4939 67.9892 72.5437C68.3627 73.5123 68.5302 74.548 68.4811 75.5848C68.4234 76.2079 68.1738 76.7979 67.7668 77.2735C67.3597 77.7491 66.8152 78.087 66.208 78.2408C65.1707 78.6526 64.015 78.6526 62.9777 78.2408C61.7652 77.6909 60.7428 76.7944 60.0399 75.6645C59.075 74.2265 58.2556 72.6962 57.5938 71.0962L49.6178 75.6911C51.7847 80.5914 54.3769 83.9114 57.3413 85.5316C60.3057 87.1517 63.9879 87.3111 68.3083 85.8901L68.4546 85.93Z" fill="#537FAB"/>
</svg>
