<svg width="104" height="105" viewBox="0 0 104 105" fill="none" xmlns="http://www.w3.org/2000/svg">
<circle cx="77.9937" cy="52.0064" r="25.7463" stroke="#E19F20" stroke-width="0.520127"/>
<circle cx="30.166" cy="37.8584" r="25.7463" stroke="#E19F20" stroke-width="0.520127"/>
<circle cx="62.6001" cy="75.7488" r="25.7463" stroke="#E19F20" stroke-width="0.520127"/>
<circle cx="55.9988" cy="26.3113" r="25.7463" stroke="#E19F20" stroke-width="0.520127"/>
<circle cx="34.6426" cy="71.3841" r="25.7463" stroke="#E19F20" stroke-width="0.520127"/>
<circle cx="77.0825" cy="45.1829" r="25.7463" stroke="#E19F20" stroke-width="0.520127"/>
<circle cx="27.2185" cy="44.0794" r="25.7463" stroke="#E19F20" stroke-width="0.520127"/>
<circle cx="68.4575" cy="72.1325" r="25.7463" stroke="#E19F20" stroke-width="0.520127"/>
<circle cx="49.1165" cy="26.1589" r="25.7463" stroke="#E19F20" stroke-width="0.520127"/>
<circle cx="40.3345" cy="75.256" r="25.7463" stroke="#E19F20" stroke-width="0.520127"/>
<circle cx="74.4131" cy="38.8376" r="25.7463" stroke="#E19F20" stroke-width="0.520127"/>
<circle cx="26.0064" cy="50.8558" r="25.7463" stroke="#E19F20" stroke-width="0.520127"/>
<circle cx="73.1611" cy="67.106" r="25.7463" stroke="#E19F20" stroke-width="0.520127"/>
<circle cx="42.4353" cy="27.8177" r="25.7463" stroke="#E19F20" stroke-width="0.520127"/>
<circle cx="46.8428" cy="77.4989" r="25.7463" stroke="#E19F20" stroke-width="0.520127"/>
<circle cx="70.1721" cy="33.415" r="25.7463" stroke="#E19F20" stroke-width="0.520127"/>
<circle cx="26.6148" cy="57.7128" r="25.7463" stroke="#E19F20" stroke-width="0.520127"/>
<circle cx="76.3811" cy="61.0215" r="25.7463" stroke="#E19F20" stroke-width="0.520127"/>
<circle cx="36.4236" cy="31.1713" r="25.7463" stroke="#E19F20" stroke-width="0.520127"/>
<circle cx="53.7117" cy="77.9555" r="25.7463" stroke="#E19F20" stroke-width="0.520127"/>
<circle cx="64.6572" cy="29.2951" r="25.7463" stroke="#E19F20" stroke-width="0.520127"/>
<circle cx="29.0007" cy="64.17" r="25.7463" stroke="#E19F20" stroke-width="0.520127"/>
<circle cx="77.8919" cy="54.3053" r="25.7463" stroke="#E19F20" stroke-width="0.520127"/>
<circle cx="31.5022" cy="35.9848" r="25.7463" stroke="#E19F20" stroke-width="0.520127"/>
<circle cx="60.4597" cy="76.594" r="25.7463" stroke="#E19F20" stroke-width="0.520127"/>
<circle cx="58.2544" cy="26.7665" r="25.7463" stroke="#E19F20" stroke-width="0.520127"/>
<circle cx="32.9976" cy="69.7749" r="25.7463" stroke="#E19F20" stroke-width="0.520127"/>
<circle cx="77.5874" cy="47.4281" r="25.7463" stroke="#E19F20" stroke-width="0.520127"/>
<circle cx="28.0161" cy="41.9209" r="25.7463" stroke="#E19F20" stroke-width="0.520127"/>
<circle cx="66.614" cy="73.5096" r="25.7463" stroke="#E19F20" stroke-width="0.520127"/>
<circle cx="51.4126" cy="26.0064" r="25.7463" stroke="#E19F20" stroke-width="0.520127"/>
<circle cx="38.325" cy="74.1349" r="25.7463" stroke="#E19F20" stroke-width="0.520127"/>
<circle cx="75.4893" cy="40.8716" r="25.7463" stroke="#E19F20" stroke-width="0.520127"/>
<circle cx="26.2097" cy="48.5636" r="25.7463" stroke="#E19F20" stroke-width="0.520127"/>
<circle cx="71.7434" cy="68.9186" r="25.7463" stroke="#E19F20" stroke-width="0.520127"/>
<circle cx="44.6111" cy="27.068" r="25.7463" stroke="#E19F20" stroke-width="0.520127"/>
<circle cx="44.6094" cy="76.9443" r="25.7463" stroke="#E19F20" stroke-width="0.520127"/>
<circle cx="71.7444" cy="35.0954" r="25.7463" stroke="#E19F20" stroke-width="0.520127"/>
<circle cx="26.2095" cy="55.4476" r="25.7463" stroke="#E19F20" stroke-width="0.520127"/>
<circle cx="75.4888" cy="63.1426" r="25.7463" stroke="#E19F20" stroke-width="0.520127"/>
<circle cx="38.3262" cy="29.8771" r="25.7463" stroke="#E19F20" stroke-width="0.520127"/>
<circle cx="51.4111" cy="78.0064" r="25.7463" stroke="#E19F20" stroke-width="0.520127"/>
<circle cx="66.6152" cy="30.504" r="25.7463" stroke="#E19F20" stroke-width="0.520127"/>
<circle cx="28.0156" cy="62.0904" r="25.7463" stroke="#E19F20" stroke-width="0.520127"/>
<circle cx="77.5872" cy="56.5862" r="25.7463" stroke="#E19F20" stroke-width="0.520127"/>
<circle cx="32.9986" cy="34.2366" r="25.7463" stroke="#E19F20" stroke-width="0.520127"/>
<circle cx="58.2529" cy="77.2467" r="25.7463" stroke="#E19F20" stroke-width="0.520127"/>
<circle cx="60.4612" cy="27.4193" r="25.7463" stroke="#E19F20" stroke-width="0.520127"/>
<circle cx="31.5012" cy="68.0267" r="25.7463" stroke="#E19F20" stroke-width="0.520127"/>
<circle cx="77.8919" cy="49.709" r="25.7463" stroke="#E19F20" stroke-width="0.520127"/>
</svg>
