<svg width="104" height="104" viewBox="0 0 104 104" fill="none" xmlns="http://www.w3.org/2000/svg">
<path d="M55.994 80.1599L56.387 86.4851L53.836 86.6206L53.4475 80.3577L53.418 79.882L52.9414 79.8887C48.3673 79.9531 44.903 78.6826 42.4711 76.1414C40.0938 73.6573 38.5931 69.7222 38.0391 64.2503L47.4073 62.2093C47.5467 63.9768 47.8622 65.7267 48.3494 67.4327C48.6701 68.6948 49.3509 69.8367 50.309 70.7195L50.3203 70.7299L50.3321 70.7395C51.1627 71.4158 52.2181 71.7537 53.287 71.6856C54.6795 71.6007 55.7209 71.0571 56.1446 69.9051C56.5012 68.9632 56.6508 67.9555 56.5832 66.9506C56.5236 64.8063 55.8081 62.7312 54.5331 61.0047L54.5265 60.9958L54.5196 60.9872C53.1254 59.2639 51.5122 57.7296 49.7208 56.4233L44.628 52.5654C43.2487 51.4778 41.9419 50.3013 40.7161 49.0435C39.5322 47.8092 38.5582 46.3899 37.8326 44.8418C37.016 42.9972 36.554 41.0157 36.4707 39.0008L36.4699 38.9815L36.4676 38.9623C36.255 37.1766 36.4108 35.3665 36.9252 33.6436C37.4384 31.9252 38.2975 30.3299 39.45 28.9556C41.925 26.3269 45.2742 24.6893 48.8716 24.3493L49.354 24.3037L49.3236 23.8202L48.947 17.8232L51.4566 17.6286L51.8272 23.5396L51.8583 24.0345L52.3534 24.0075C54.5233 23.8896 56.6847 24.3635 58.6063 25.3785C60.1065 26.2328 61.3593 27.4614 62.2422 28.9441L62.2434 28.946C63.1154 30.3952 63.758 31.9702 64.1486 33.6153L64.1492 33.6176C64.4953 35.0455 64.7485 36.4942 64.9073 37.9544L55.3907 39.7097C55.2735 38.6505 55.1248 37.6765 54.9933 36.8156C54.9466 36.5096 54.902 36.2179 54.8618 35.9417L54.8616 35.9401C54.7013 34.8618 54.2861 33.837 53.6507 32.9507L53.6329 32.9259L53.6122 32.9034C53.26 32.5208 52.8143 32.2362 52.319 32.0776C51.8406 31.9245 51.3318 31.894 50.8391 31.9884C50.2415 31.995 49.6578 32.1709 49.1558 32.4963C48.6435 32.8284 48.2386 33.3018 47.9901 33.8593C47.491 34.8313 47.2534 35.9166 47.3006 37.0085C47.3355 39.0339 48.0868 40.982 49.4214 42.5075L49.4272 42.5142L49.4333 42.5206C50.6583 43.8246 51.9782 45.0363 53.3821 46.1457L53.382 46.1458L53.3882 46.1506L58.2725 49.8873C59.8755 51.1695 61.3793 52.5709 62.7709 54.0796C64.1368 55.5655 65.267 57.2514 66.1223 59.0788C67.0326 61.1343 67.5502 63.3417 67.6481 65.587L67.6484 65.5944L67.6489 65.6017C67.8109 67.8138 67.4516 70.0326 66.6 72.0802C65.7753 74.0354 64.4494 75.7387 62.7558 77.0185C60.8914 78.3973 58.7154 79.2958 56.4201 79.6343L55.9655 79.7013L55.994 80.1599Z" stroke="#D8F3FF"/>
</svg>
