<svg width="104" height="104" viewBox="0 0 104 104" fill="none" xmlns="http://www.w3.org/2000/svg">
<path d="M51.5541 52.2574L51.9999 51.4852L52.4456 52.2574H51.5541Z" stroke="#E19F20" stroke-width="0.0105051"/>
<path d="M50.6627 52.7721L52.0001 50.4558L53.3374 52.7721H50.6627Z" stroke="#E19F20" stroke-width="0.0315152"/>
<path d="M49.7709 53.2869L51.9998 49.4263L54.2287 53.2869H49.7709Z" stroke="#E19F20" stroke-width="0.0525253"/>
<path d="M48.8795 53.8016L52 48.3968L55.1205 53.8016H48.8795Z" stroke="#E19F20" stroke-width="0.0735354"/>
<path d="M47.9882 54.3164L52.0002 47.3673L56.0123 54.3164H47.9882Z" stroke="#E19F20" stroke-width="0.0945455"/>
<path d="M47.0963 54.8311L51.9999 46.3378L56.9036 54.8311H47.0963Z" stroke="#E19F20" stroke-width="0.115556"/>
<path d="M46.205 55.3459L52.0002 45.3083L57.7954 55.3459H46.205Z" stroke="#E19F20" stroke-width="0.136566"/>
<path d="M45.3131 55.8606L51.9999 44.2788L58.6866 55.8606H45.3131Z" stroke="#E19F20" stroke-width="0.157576"/>
<path d="M44.4218 56.3754L52.0001 43.2493L59.5784 56.3754H44.4218Z" stroke="#E19F20" stroke-width="0.178586"/>
<path d="M43.5299 56.8901L51.9998 42.2198L60.4697 56.8901H43.5299Z" stroke="#E19F20" stroke-width="0.199596"/>
<path d="M42.6386 57.4048L52 41.1903L61.3615 57.4048H42.6386Z" stroke="#E19F20" stroke-width="0.220606"/>
<path d="M41.7472 57.9196L52.0002 40.1608L62.2533 57.9196H41.7472Z" stroke="#E19F20" stroke-width="0.241616"/>
<path d="M40.8554 58.4343L52 39.1313L63.1446 58.4343H40.8554Z" stroke="#E19F20" stroke-width="0.262626"/>
<path d="M39.964 58.9491L52.0002 38.1018L64.0364 58.9491H39.964Z" stroke="#E19F20" stroke-width="0.283636"/>
<path d="M39.0722 59.4638L51.9999 37.0723L64.9276 59.4638H39.0722Z" stroke="#E19F20" stroke-width="0.304646"/>
<path d="M38.1808 59.9786L52.0001 36.0428L65.8194 59.9786H38.1808Z" stroke="#E19F20" stroke-width="0.325657"/>
<path d="M37.289 60.4933L51.9998 35.0133L66.7107 60.4933H37.289Z" stroke="#E19F20" stroke-width="0.346667"/>
<path d="M36.3976 61.0081L52 33.9838L67.6025 61.0081H36.3976Z" stroke="#E19F20" stroke-width="0.367677"/>
<path d="M35.5058 61.5228L51.9998 32.9543L68.4938 61.5228H35.5058Z" stroke="#E19F20" stroke-width="0.388687"/>
<path d="M34.6144 62.0376L52 31.9248L69.3856 62.0376H34.6144Z" stroke="#E19F20" stroke-width="0.409697"/>
<path d="M33.723 62.5523L52.0002 30.8954L70.2774 62.5523H33.723Z" stroke="#E19F20" stroke-width="0.430707"/>
<path d="M32.8312 63.0671L51.9999 29.8659L71.1687 63.0671H32.8312Z" stroke="#E19F20" stroke-width="0.451717"/>
<path d="M31.9398 63.5818L52.0001 28.8364L72.0604 63.5818H31.9398Z" stroke="#E19F20" stroke-width="0.472727"/>
<path d="M31.048 64.0966L51.9999 27.8069L72.9517 64.0966H31.048Z" stroke="#E19F20" stroke-width="0.493737"/>
<path d="M30.1566 64.6113L52.0001 26.7774L73.8435 64.6113H30.1566Z" stroke="#E19F20" stroke-width="0.514748"/>
<path d="M29.2648 65.1261L51.9998 25.7479L74.7348 65.1261H29.2648Z" stroke="#E19F20" stroke-width="0.535758"/>
<path d="M28.3734 65.6408L52 24.7184L75.6266 65.6408H28.3734Z" stroke="#E19F20" stroke-width="0.556768"/>
<path d="M27.4821 66.1556L52.0002 23.6889L76.5184 66.1556H27.4821Z" stroke="#E19F20" stroke-width="0.577778"/>
<path d="M26.5902 66.6703L51.9999 22.6594L77.4097 66.6703H26.5902Z" stroke="#E19F20" stroke-width="0.598788"/>
<path d="M25.6989 67.1851L52.0002 21.6299L78.3014 67.1851H25.6989Z" stroke="#E19F20" stroke-width="0.619798"/>
<path d="M24.807 67.6998L51.9999 20.6004L79.1927 67.6998H24.807Z" stroke="#E19F20" stroke-width="0.640808"/>
<path d="M23.9157 68.2145L52.0001 19.5709L80.0845 68.2145H23.9157Z" stroke="#E19F20" stroke-width="0.661818"/>
<path d="M23.0238 68.7293L51.9998 18.5414L80.9758 68.7293H23.0238Z" stroke="#E19F20" stroke-width="0.682828"/>
<path d="M22.1325 69.244L52 17.5119L81.8676 69.244H22.1325Z" stroke="#E19F20" stroke-width="0.703838"/>
<path d="M21.2411 69.7588L52.0002 16.4824L82.7594 69.7588H21.2411Z" stroke="#E19F20" stroke-width="0.724848"/>
<path d="M20.3493 70.2735L52 15.4529L83.6507 70.2735H20.3493Z" stroke="#E19F20" stroke-width="0.745859"/>
<path d="M19.4579 70.7883L52.0002 14.4234L84.5424 70.7883H19.4579Z" stroke="#E19F20" stroke-width="0.766869"/>
<path d="M18.5661 71.303L51.9999 13.3939L85.4337 71.303H18.5661Z" stroke="#E19F20" stroke-width="0.787879"/>
<path d="M17.6747 71.8178L52.0001 12.3644L86.3255 71.8178H17.6747Z" stroke="#E19F20" stroke-width="0.808889"/>
<path d="M16.7829 72.3325L51.9998 11.335L87.2168 72.3325H16.7829Z" stroke="#E19F20" stroke-width="0.829899"/>
<path d="M15.8915 72.8473L52 10.3055L88.1086 72.8473H15.8915Z" stroke="#E19F20" stroke-width="0.850909"/>
<path d="M14.9997 73.362L51.9998 9.27597L88.9999 73.362H14.9997Z" stroke="#E19F20" stroke-width="0.871919"/>
<path d="M14.1083 73.8768L52 8.24648L89.8917 73.8768H14.1083Z" stroke="#E19F20" stroke-width="0.892929"/>
<path d="M13.217 74.3915L52.0002 7.21698L90.7834 74.3915H13.217Z" stroke="#E19F20" stroke-width="0.913939"/>
<path d="M12.3251 74.9063L51.9999 6.18748L91.6747 74.9063H12.3251Z" stroke="#E19F20" stroke-width="0.934949"/>
<path d="M11.4338 75.421L52.0001 5.15799L92.5665 75.421H11.4338Z" stroke="#E19F20" stroke-width="0.95596"/>
<path d="M10.5419 75.9358L51.9999 4.12849L93.4578 75.9358H10.5419Z" stroke="#E19F20" stroke-width="0.97697"/>
<path d="M9.65055 76.4505L52.0001 3.09899L94.3496 76.4505H9.65055Z" stroke="#E19F20" stroke-width="0.99798"/>
<path d="M8.7587 76.9652L51.9998 2.06949L95.2409 76.9652H8.7587Z" stroke="#E19F20" stroke-width="1.01899"/>
<path d="M7.86734 77.48L52 1.04L96.1327 77.48H7.86734Z" stroke="#E19F20" stroke-width="1.04"/>
</svg>
