<svg width="905" height="674" viewBox="0 0 905 674" fill="none" xmlns="http://www.w3.org/2000/svg">
<g clip-path="url(#clip0_46_2181)">
<path d="M905 592.301H0V592.753H905V592.301Z" fill="#E0E0E0"/>
<path d="M777.793 615.928H726.407V616.38H777.793V615.928Z" fill="#E0E0E0"/>
<path d="M713.14 616.145H667.22V616.597H713.14V616.145Z" fill="#E0E0E0"/>
<path d="M500.682 605.67H438.871V606.122H500.682V605.67Z" fill="#E0E0E0"/>
<path d="M617.246 619.691H531.344V620.143H617.246V619.691Z" fill="#E0E0E0"/>
<path d="M258.541 605.146H175.371V605.598H258.541V605.146Z" fill="#E0E0E0"/>
<path d="M296.84 605.146H268.586V605.598H296.84V605.146Z" fill="#E0E0E0"/>
<path d="M185.833 613.286H113.053V613.739H185.833V613.286Z" fill="#E0E0E0"/>
<path d="M428.97 511.615H79.4772C76.7393 511.61 74.1151 510.52 72.1808 508.583C70.2465 506.646 69.1602 504.021 69.1602 501.285V10.2395C69.184 7.51868 70.2809 4.91711 72.2126 2.99989C74.1443 1.08268 76.7549 0.00466095 79.4772 0L428.97 0C431.711 0 434.34 1.08833 436.278 3.02558C438.216 4.96283 439.305 7.5903 439.305 10.33V501.285C439.305 504.024 438.216 506.652 436.278 508.589C434.34 510.526 431.711 511.615 428.97 511.615ZM79.4772 0.361821C76.8593 0.366613 74.3502 1.40941 72.5008 3.26132C70.6514 5.11323 69.6127 7.62293 69.6127 10.2395V501.285C69.6127 503.901 70.6514 506.411 72.5008 508.263C74.3502 510.115 76.8593 511.158 79.4772 511.162H428.97C431.588 511.153 434.096 510.109 435.948 508.259C437.799 506.408 438.843 503.902 438.853 501.285V10.2395C438.843 7.62273 437.799 5.11583 435.948 3.26547C434.096 1.4151 431.588 0.371354 428.97 0.361821H79.4772Z" fill="#E0E0E0"/>
<path d="M820.491 511.615H470.98C468.242 511.605 465.619 510.514 463.683 508.579C461.747 506.643 460.655 504.022 460.645 501.285V10.2395C460.674 7.51703 461.775 4.91548 463.709 2.99876C465.644 1.08204 468.256 0.00461012 470.98 0L820.491 0C823.21 0.00941548 825.816 1.08953 827.744 3.00624C829.672 4.92295 830.766 7.52181 830.79 10.2395V501.285C830.792 502.639 830.528 503.98 830.012 505.232C829.495 506.484 828.737 507.622 827.781 508.582C826.825 509.541 825.689 510.302 824.438 510.823C823.187 511.343 821.846 511.612 820.491 511.615ZM470.98 0.361821C468.362 0.371354 465.854 1.4151 464.003 3.26547C462.151 5.11583 461.107 7.62273 461.098 10.2395V501.285C461.107 503.902 462.151 506.408 464.003 508.259C465.854 510.109 468.362 511.153 470.98 511.162H820.491C823.109 511.153 825.617 510.109 827.469 508.259C829.32 506.408 830.364 503.902 830.374 501.285V10.2395C830.364 7.62273 829.32 5.11583 827.469 3.26547C825.617 1.4151 823.109 0.371354 820.491 0.361821H470.98Z" fill="#E0E0E0"/>
<path d="M594.332 43.907H129.162V278.295H594.332V43.907Z" fill="#E0E0E0"/>
<path d="M600.395 43.907H135.225V278.295H600.395V43.907Z" fill="#EFEFEF"/>
<path d="M589.517 54.8882H146.121V267.277H589.517V54.8882Z" fill="#F4F4F4"/>
<path d="M178.955 267.295L299.211 54.9063H355.556L235.318 267.295H178.955Z" fill="white"/>
<path d="M254.232 267.295L374.489 54.9063H430.834L310.596 267.295H254.232Z" fill="white"/>
<path d="M410.87 267.295L531.108 54.9063H554.313L434.074 267.295H410.87Z" fill="white"/>
<path d="M445.17 54.8882H428.771V267.277H445.17V54.8882Z" fill="#E0E0E0"/>
<path d="M294.758 54.8882H278.36V267.277H294.758V54.8882Z" fill="#E0E0E0"/>
<path d="M450.925 46.7292H434.527V274.278H450.925V46.7292Z" fill="#F4F4F4"/>
<path d="M300.514 46.7292H284.116V274.278H300.514V46.7292Z" fill="#F4F4F4"/>
<path d="M589.517 54.8882H584.938V267.277H589.517V54.8882Z" fill="#E0E0E0"/>
<path d="M709.23 347.493C709.23 347.493 676.035 290.307 722.081 244.79C722.081 244.79 734.1 252.605 733.919 263.134C733.738 273.663 721.05 276.323 723.765 285.115C726.48 293.907 738.48 302.518 730.625 309.773C722.769 317.027 731.874 323.504 731.349 332.387C730.824 341.269 709.23 347.493 709.23 347.493Z" fill="#E0E0E0"/>
<path d="M714.443 356.846C714.443 356.846 727.892 292.116 669.827 263.424C669.827 263.424 660.904 274.64 664.397 284.572C667.89 294.504 680.777 293.039 680.958 302.229C681.139 311.419 672.488 323.377 682.243 327.792C691.999 332.206 685.375 341.215 688.687 349.501C691.999 357.787 714.443 356.846 714.443 356.846Z" fill="#EBEBEB"/>
<path d="M684.886 340.401C684.886 340.401 685.465 367.393 707.8 367.393C730.136 367.393 730.733 340.401 730.733 340.401H684.886Z" fill="#F4F4F4"/>
<path d="M529.896 346.371C529.896 346.371 530.656 367.393 560.032 367.393C589.408 367.393 590.187 346.371 590.187 346.371H529.896Z" fill="#EBEBEB"/>
<path d="M598.078 351.581C598.078 351.581 598.657 367.393 620.739 367.393C642.821 367.393 643.382 351.581 643.382 351.581H598.078Z" fill="#EBEBEB"/>
<path d="M550.584 380.509H501.135V578.733H550.584V380.509Z" fill="#EBEBEB"/>
<path d="M754.462 578.714H510.619V592.301H754.462V578.714Z" fill="#EBEBEB"/>
<path d="M763.965 380.491H550.584V578.714H763.965V380.491Z" fill="#F4F4F4"/>
<path d="M744.526 399.667H570.023V469.969H744.526V399.667Z" fill="#EBEBEB"/>
<path d="M744.526 482.778H570.023V553.079H744.526V482.778Z" fill="#EBEBEB"/>
<path d="M676.94 407.374H637.681C636.403 407.374 635.176 406.868 634.27 405.966C633.365 405.064 632.853 403.84 632.849 402.562C632.858 401.284 633.37 400.061 634.275 399.157C635.179 398.253 636.403 397.741 637.681 397.732H676.94C678.219 397.741 679.443 398.253 680.347 399.157C681.251 400.061 681.763 401.284 681.773 402.562C681.768 403.84 681.257 405.064 680.351 405.966C679.445 406.868 678.219 407.374 676.94 407.374Z" fill="#F4F4F4"/>
<path d="M676.94 490.484H637.681C636.403 490.484 635.176 489.978 634.27 489.076C633.365 488.174 632.853 486.95 632.849 485.672C632.858 484.394 633.37 483.171 634.275 482.267C635.179 481.363 636.403 480.851 637.681 480.842H676.94C678.219 480.851 679.443 481.363 680.347 482.267C681.251 483.171 681.763 484.394 681.773 485.672C681.768 486.95 681.257 488.174 680.351 489.076C679.445 489.978 678.219 490.484 676.94 490.484Z" fill="#F4F4F4"/>
<path d="M770.535 367.393H550.566V380.509H770.535V367.393Z" fill="#EBEBEB"/>
<path d="M550.566 367.375H494.203V380.491H550.566V367.375Z" fill="#E0E0E0"/>
<path d="M759.512 76.905H652.396V200.25H759.512V76.905Z" fill="#EBEBEB"/>
<path d="M771.675 76.905H655.6V200.25H771.675V76.905Z" fill="#F4F4F4"/>
<path d="M761.956 86.6199H665.32V190.517H761.956V86.6199Z" fill="white"/>
<path d="M730.009 111.803H697.266C692.558 111.803 688.741 115.618 688.741 120.324V156.813C688.741 161.519 692.558 165.334 697.266 165.334H730.009C734.718 165.334 738.534 161.519 738.534 156.813V120.324C738.534 115.618 734.718 111.803 730.009 111.803Z" fill="#F4F4F4"/>
<path d="M487.053 477.459H474.618V592.301H487.053V477.459Z" fill="#E0E0E0"/>
<path opacity="0.5" d="M487.053 477.459H480.827V592.301H487.053V477.459Z" fill="#F4F4F4"/>
<path d="M432.59 509.625H424.047C424.983 508.833 425.735 507.846 426.251 506.734C426.767 505.622 427.034 504.41 427.033 503.184H325.8C325.801 504.412 326.071 505.624 326.59 506.736C327.109 507.849 327.865 508.835 328.804 509.625H320.37C317.346 509.625 314.445 510.826 312.307 512.963C310.168 515.1 308.967 517.999 308.967 521.022V554.255C308.967 557.278 310.168 560.177 312.307 562.314C314.445 564.452 317.346 565.653 320.37 565.653H432.59C435.614 565.653 438.514 564.452 440.653 562.314C442.791 560.177 443.993 557.278 443.993 554.255V521.022C443.993 517.999 442.791 515.1 440.653 512.963C438.514 510.826 435.614 509.625 432.59 509.625Z" fill="#F4F4F4"/>
<path d="M338.958 534.174H270.884C266.646 534.174 263.21 537.609 263.21 541.845V557.982C263.21 562.218 266.646 565.653 270.884 565.653H338.958C343.197 565.653 346.633 562.218 346.633 557.982V541.845C346.633 537.609 343.197 534.174 338.958 534.174Z" fill="#EBEBEB"/>
<path d="M344.063 527.227H265.78C264.361 527.227 263.21 528.377 263.21 529.796V532.727C263.21 534.146 264.361 535.296 265.78 535.296H344.063C345.482 535.296 346.633 534.146 346.633 532.727V529.796C346.633 528.377 345.482 527.227 344.063 527.227Z" fill="#E0E0E0"/>
<path d="M354.326 426.171C354.326 426.171 355.502 464.162 400.028 464.162C444.554 464.162 445.731 426.171 445.731 426.171H354.326Z" fill="#EBEBEB"/>
<path d="M195.1 464.18H139.569V477.459H195.1V464.18Z" fill="#E0E0E0"/>
<path d="M530.149 464.18H195.118V477.459H530.149V464.18Z" fill="#F4F4F4"/>
<path d="M195.1 565.653H139.569V578.932H195.1V565.653Z" fill="#E0E0E0"/>
<path d="M152.022 477.459H139.587V592.301H152.022V477.459Z" fill="#E0E0E0"/>
<path opacity="0.5" d="M152.022 477.459H145.795V592.301H152.022V477.459Z" fill="#F4F4F4"/>
<path d="M201.326 477.459H188.892V592.301H201.326V477.459Z" fill="#F4F4F4"/>
<path d="M195.118 477.459H188.892V592.301H195.118V477.459Z" fill="#E0E0E0"/>
<path d="M530.131 477.459H517.696V592.301H530.131V477.459Z" fill="#F4F4F4"/>
<path d="M523.923 477.459H517.696V592.301H523.923V477.459Z" fill="#E0E0E0"/>
<path d="M530.149 565.653H195.118V578.932H530.149V565.653Z" fill="#F4F4F4"/>
<path d="M284.459 456.347H216.91V464.18H284.459V456.347Z" fill="#E0E0E0"/>
<path d="M308.659 456.329H284.459V464.162H308.659V456.329Z" fill="#EBEBEB"/>
<path d="M452.5 674C646.319 674 803.441 664.831 803.441 653.521C803.441 642.211 646.319 633.042 452.5 633.042C258.681 633.042 101.559 642.211 101.559 653.521C101.559 664.831 258.681 674 452.5 674Z" fill="#616094"/>
<path d="M394.345 173.131C394.471 194.569 379.105 194.352 379.412 187.604C379.72 180.856 375.919 165.008 379.412 166.546C382.906 168.084 394.29 163.652 394.345 173.131Z" fill="#1A2E35"/>
<path d="M384.679 211.955C386.797 211.792 391.051 213.764 391.431 219.354C391.53 220.978 392.005 222.557 392.818 223.967C393.632 225.376 394.761 226.578 396.119 227.477C396.119 227.477 389.078 228.327 384.462 224.673C380.697 221.724 379.032 215.265 381.005 213.818C382.089 212.951 383.339 212.317 384.679 211.955Z" fill="#1A2E35"/>
<path d="M381.91 196.722C385.53 199.924 388.843 208.391 380.68 212.407C372.517 216.423 359.684 206.98 359.684 206.98L373.783 200.449L381.91 196.722Z" fill="#1A2E35"/>
<path d="M385.929 212.733C385.731 211.56 385.403 210.413 384.951 209.313C384.917 209.222 384.865 209.138 384.798 209.066C384.731 208.995 384.651 208.937 384.562 208.897C384.473 208.856 384.376 208.834 384.279 208.831C384.181 208.828 384.083 208.844 383.992 208.879H383.847L378.833 212.226C378.752 212.281 378.683 212.351 378.629 212.432C378.575 212.513 378.538 212.605 378.52 212.7C378.501 212.796 378.502 212.895 378.522 212.99C378.541 213.086 378.579 213.176 378.634 213.257C378.691 213.332 378.758 213.399 378.833 213.456C379.557 213.982 380.333 214.431 381.15 214.795C382.327 215.265 384.77 213.927 385.603 213.348C385.707 213.283 385.792 213.193 385.849 213.084C385.907 212.976 385.934 212.855 385.929 212.733Z" fill="#E19F20"/>
<path opacity="0.3" d="M385.929 212.733C385.731 211.56 385.403 210.413 384.951 209.313C384.917 209.222 384.865 209.138 384.798 209.066C384.731 208.995 384.651 208.937 384.562 208.897C384.473 208.856 384.376 208.834 384.279 208.831C384.181 208.828 384.083 208.844 383.992 208.879H383.847L378.833 212.226C378.752 212.281 378.683 212.351 378.629 212.432C378.575 212.513 378.538 212.605 378.52 212.7C378.501 212.796 378.502 212.895 378.522 212.99C378.541 213.086 378.579 213.176 378.634 213.257C378.691 213.332 378.758 213.399 378.833 213.456C379.557 213.982 380.333 214.431 381.15 214.795C382.327 215.265 384.77 213.927 385.603 213.348C385.707 213.283 385.792 213.193 385.849 213.084C385.907 212.976 385.934 212.855 385.929 212.733Z" fill="black"/>
<path d="M331.972 203.85C329.963 203.181 325.366 204.085 323.664 209.44C323.18 210.993 322.343 212.413 321.219 213.59C320.095 214.767 318.714 215.668 317.185 216.224C317.185 216.224 323.827 218.721 329.185 216.224C333.529 214.252 336.606 208.355 335.104 206.473C334.252 205.392 333.186 204.498 331.972 203.85Z" fill="#1A2E35"/>
<path d="M351.918 167.035C344.588 169.025 334.723 177.708 339.104 188.364C334.778 191.313 329.239 199.797 335.719 205.225C342.687 211.068 359.828 202.873 359.828 202.873L359.955 200.087L362 179.355L351.918 167.035Z" fill="#1A2E35"/>
<path d="M330.578 204.32C331.061 203.223 331.668 202.185 332.388 201.227C332.516 201.071 332.7 200.972 332.9 200.952C333.1 200.931 333.3 200.991 333.456 201.118L333.565 201.227L337.619 205.659C337.688 205.728 337.743 205.81 337.78 205.9C337.818 205.99 337.837 206.086 337.837 206.184C337.837 206.281 337.818 206.378 337.78 206.468C337.743 206.558 337.688 206.639 337.619 206.708C337.563 206.777 337.487 206.827 337.402 206.853C336.58 207.19 335.725 207.439 334.85 207.595C333.583 207.776 331.628 205.912 330.868 205.152C330.741 205.059 330.646 204.93 330.594 204.781C330.542 204.633 330.537 204.472 330.578 204.32Z" fill="#E19F20"/>
<path opacity="0.3" d="M330.578 204.32C331.061 203.223 331.668 202.185 332.388 201.227C332.516 201.071 332.7 200.972 332.9 200.952C333.1 200.931 333.3 200.991 333.456 201.118L333.565 201.227L337.619 205.659C337.688 205.728 337.743 205.81 337.78 205.9C337.818 205.99 337.837 206.086 337.837 206.184C337.837 206.281 337.818 206.378 337.78 206.468C337.743 206.558 337.688 206.639 337.619 206.708C337.563 206.777 337.487 206.827 337.402 206.853C336.58 207.19 335.725 207.439 334.85 207.595C333.583 207.776 331.628 205.912 330.868 205.152C330.741 205.059 330.646 204.93 330.594 204.781C330.542 204.633 330.537 204.472 330.578 204.32Z" fill="black"/>
<path d="M396.535 242.547C399.992 245.224 403.775 248.082 407.576 250.688C411.377 253.293 415.196 255.916 419.124 258.322C423.051 260.728 427.033 262.971 431.051 265.106L434.074 266.644L437.151 268.073C438.165 268.562 439.196 268.996 440.246 269.394L441.785 270.027C442.31 270.226 442.871 270.479 443.197 270.57C445.089 271.146 447.026 271.564 448.989 271.818C451.124 272.125 453.369 272.343 455.649 272.505C460.192 272.795 464.862 272.921 469.55 272.94C474.238 272.958 478.98 272.94 483.704 272.795L497.913 272.397L498.8 279.507C489.293 281.42 479.693 282.839 470.039 283.758C465.17 284.192 460.283 284.518 455.287 284.554C452.79 284.554 450.256 284.554 447.649 284.319C444.846 284.157 442.068 283.702 439.359 282.962C438.527 282.745 438.002 282.528 437.386 282.329L435.576 281.696C434.364 281.298 433.169 280.863 431.956 280.375L428.445 278.964L425.006 277.444C420.46 275.399 416.031 273.104 411.739 270.57C407.467 268.055 403.268 265.45 399.214 262.664C395.075 259.861 391.087 256.842 387.268 253.618L396.535 242.547Z" fill="#FD897B"/>
<path d="M377.747 234.424C382.254 230.914 400.807 242.402 406.454 247.196L402.345 272.035C402.345 272.035 375.648 260.855 374.037 253.22C372.372 245.242 374.345 237.101 377.747 234.424Z" fill="#1A2E35"/>
<path d="M495.94 273.012L507.126 264.346L508.013 277.752C508.013 277.752 500.302 282.528 495.216 279.561L495.94 273.012Z" fill="#FD897B"/>
<path d="M517.099 263.026L522.819 269.394L507.941 277.752L507.054 264.346L517.099 263.026Z" fill="#FD897B"/>
<path d="M304.587 635.846L318.687 636.895L323.827 604.458L309.745 603.409L304.587 635.846Z" fill="#FD897B"/>
<path d="M204.838 590.51L216.802 598.036L238.106 572.781L226.142 565.237L204.838 590.51Z" fill="#FD897B"/>
<path d="M220.585 595.34L209.381 584.069C209.188 583.877 208.931 583.76 208.659 583.74C208.387 583.72 208.116 583.798 207.897 583.961L197.706 591.577C197.237 591.957 196.936 592.507 196.872 593.107C196.807 593.707 196.984 594.309 197.363 594.779L197.525 594.96C201.489 598.814 203.607 600.478 208.53 605.435C211.553 608.492 215.662 613.25 219.843 617.465C224.024 621.681 228.404 617.755 227.083 615.656C220.965 606.122 222.069 602.558 221.653 597.71C221.603 596.815 221.222 595.971 220.585 595.34Z" fill="#1A2E35"/>
<path d="M319.628 634.869H303.736C303.457 634.869 303.186 634.966 302.971 635.145C302.756 635.323 302.611 635.571 302.56 635.846L300.044 648.401C299.943 648.953 300.063 649.521 300.377 649.985C300.692 650.449 301.177 650.77 301.727 650.88C301.896 650.898 302.065 650.898 302.234 650.88C307.772 650.88 310.469 650.464 317.456 650.464C321.746 650.464 333.746 650.898 339.737 650.898C345.728 650.898 346.326 645.036 343.882 644.512C333.022 642.124 325.547 638.849 321.981 635.701C321.325 635.145 320.488 634.849 319.628 634.869Z" fill="#1A2E35"/>
<path d="M323.828 604.458L320.968 622.477L307.067 620.143L309.728 603.427L323.828 604.458Z" fill="#E77064"/>
<path d="M226.141 565.255L238.105 572.781L229.291 583.237L217.055 576.019L226.141 565.255Z" fill="#E77064"/>
<path d="M315.302 309.592L371.666 320.573C400.789 241.751 394.454 239.164 394.454 239.164C390.359 236.912 386.127 234.918 381.784 233.194L381.023 232.904C377.403 231.583 376.679 231.384 371.865 229.973C363.575 228.001 355.846 226.355 346.271 224.998L344.461 224.745C342.651 224.528 341.004 224.347 339.339 224.184C338.217 224.058 337.095 223.985 336.027 223.913L332.407 223.714C326.217 223.406 321.782 223.497 321.782 223.497C323.502 272.723 320.714 286.852 315.302 309.592Z" fill="#1A2E35"/>
<path d="M354.416 196.722C354.416 205.261 353.095 220.657 346.253 225.035C346.253 225.035 346.886 233.827 362.181 236.794C379.014 240.068 371.846 230.01 371.846 230.01C363.104 226.03 364.606 219.263 367.502 213.185L354.416 196.722Z" fill="#FD897B"/>
<path d="M359.756 203.434L367.502 213.185C366.83 214.597 366.274 216.061 365.837 217.563C362.416 216.369 358.344 211.593 358.597 207.848C358.708 206.318 359.101 204.821 359.756 203.434Z" fill="#E77064"/>
<path d="M353.602 177.111C351.792 191.023 350.688 196.867 356.263 205.279C364.643 217.943 382.128 217.129 388.083 204.049C393.513 192.272 395.54 171.485 383.141 163.435C381.044 162.05 378.694 161.092 376.226 160.615C373.758 160.138 371.22 160.152 368.758 160.656C366.295 161.16 363.956 162.144 361.874 163.552C359.792 164.96 358.009 166.764 356.625 168.862C354.996 171.343 353.962 174.166 353.602 177.111Z" fill="#FD897B"/>
<path d="M398.906 155.076C399.161 157.283 398.995 159.517 398.417 161.662C398.287 160.934 398.112 160.215 397.892 159.509C392.933 143.118 370.598 147.026 363.864 154.081C353.004 150.97 342.669 153.448 344.045 166.745C344.217 170.171 345.45 173.459 347.574 176.153C345.891 180.82 347.574 188.255 353.131 188.473C360.95 188.78 368.371 178.432 371.358 172.751C376.788 173.674 384.607 174.561 390.544 173.113C391.539 173.71 392.354 174.126 392.354 174.126C398.671 170.743 403.485 167.469 398.906 155.076Z" fill="#1A2E35"/>
<path d="M348.787 186.609C348.57 189.308 349.421 191.985 351.158 194.063C353.511 196.794 356.588 195.184 357.693 191.946C358.616 189.015 358.489 184.076 355.34 182.539C354.793 182.282 354.201 182.135 353.598 182.107C352.994 182.079 352.391 182.17 351.823 182.375C351.255 182.58 350.733 182.895 350.286 183.302C349.84 183.708 349.478 184.199 349.222 184.746C348.95 185.33 348.802 185.965 348.787 186.609Z" fill="#FD897B"/>
<path d="M370.815 320.573C370.815 320.573 371.032 432.412 361.873 474.528C352.353 518.345 324.352 618.026 324.352 618.026L304.08 615.403C304.08 615.403 319.954 514.708 326.705 471.163C334.072 423.71 329.565 312.541 329.565 312.541L370.815 320.573Z" fill="#E19F20"/>
<path opacity="0.3" d="M370.815 320.573C370.815 320.573 371.032 432.412 361.873 474.528C352.353 518.345 324.352 618.026 324.352 618.026L304.08 615.403C304.08 615.403 319.954 514.708 326.705 471.163C334.072 423.71 329.565 312.541 329.565 312.541L370.815 320.573Z" fill="black"/>
<path d="M327.809 619.781L300.605 616.271L301.763 606.647L332.642 610.265L327.809 619.781Z" fill="#1A2E35"/>
<path d="M356.787 317.679C356.787 317.679 326.433 410.106 311.356 463.348C295.464 519.521 234.54 581.645 234.54 581.645L217.073 571.55C217.073 571.55 258.703 512.574 273.998 460.164C305.148 353.77 292.351 331.229 315.302 309.592L356.787 317.679Z" fill="#E19F20"/>
<path opacity="0.3" d="M356.787 317.679C356.787 317.679 326.433 410.106 311.356 463.348C295.464 519.521 234.54 581.645 234.54 581.645L217.073 571.55C217.073 571.55 258.703 512.574 273.998 460.164C305.148 353.77 292.351 331.229 315.302 309.592L356.787 317.679Z" fill="black"/>
<path d="M237.381 584.449L213.109 570.447L219.155 561.799L246.106 576.652L237.381 584.449Z" fill="#1A2E35"/>
<path d="M373.693 185.017C373.476 186.139 373.892 187.152 374.634 187.297C375.376 187.441 376.136 186.645 376.444 185.487C376.752 184.33 376.245 183.335 375.503 183.19C374.761 183.045 373.91 183.895 373.693 185.017Z" fill="#1A2E35"/>
<path d="M386.345 187.477C386.127 188.599 386.544 189.63 387.286 189.775C388.028 189.92 388.788 189.124 389.005 187.966C389.223 186.808 388.806 185.813 388.064 185.686C387.322 185.56 386.562 186.338 386.345 187.477Z" fill="#1A2E35"/>
<path d="M387.738 185.705L390.58 185.469C390.58 185.469 388.788 187.297 387.738 185.705Z" fill="#1A2E35"/>
<path d="M382.634 188.762C383.135 191.505 384.012 194.165 385.241 196.668C384.592 196.971 383.884 197.129 383.168 197.129C382.452 197.129 381.744 196.971 381.096 196.668L382.634 188.762Z" fill="#FD5652"/>
<path d="M376.353 200.286C374.84 200.038 373.41 199.429 372.184 198.509C370.958 197.589 369.973 196.386 369.312 195.003C369.294 194.964 369.284 194.922 369.282 194.879C369.281 194.836 369.288 194.793 369.303 194.752C369.318 194.712 369.341 194.675 369.371 194.643C369.4 194.612 369.436 194.587 369.475 194.569C369.557 194.539 369.648 194.54 369.728 194.574C369.809 194.607 369.874 194.67 369.91 194.75C370.542 196.021 371.464 197.125 372.603 197.974C373.741 198.822 375.063 199.391 376.462 199.635C376.505 199.641 376.546 199.656 376.583 199.679C376.62 199.702 376.653 199.732 376.678 199.767C376.703 199.803 376.721 199.843 376.731 199.885C376.74 199.928 376.741 199.972 376.733 200.015C376.716 200.099 376.667 200.174 376.596 200.225C376.526 200.275 376.439 200.297 376.353 200.286Z" fill="#1A2E35"/>
<path d="M370.815 180.205C370.64 180.196 370.475 180.123 370.351 179.999C370.227 179.875 370.154 179.71 370.145 179.536C370.152 179.351 370.23 179.176 370.362 179.047C371.138 178.318 372.076 177.786 373.099 177.493C374.123 177.2 375.201 177.156 376.245 177.365C376.416 177.415 376.561 177.53 376.648 177.686C376.736 177.841 376.76 178.024 376.715 178.197C376.694 178.28 376.657 178.358 376.605 178.427C376.554 178.496 376.489 178.554 376.415 178.598C376.341 178.641 376.259 178.67 376.174 178.682C376.089 178.694 376.002 178.689 375.919 178.667C375.09 178.52 374.238 178.568 373.431 178.807C372.624 179.045 371.883 179.468 371.267 180.042C371.143 180.152 370.981 180.21 370.815 180.205Z" fill="#1A2E35"/>
<path d="M393.368 182.72C393.235 182.721 393.105 182.682 392.995 182.608C392.885 182.533 392.8 182.427 392.752 182.303C392.439 181.529 391.951 180.836 391.326 180.281C390.701 179.726 389.957 179.322 389.15 179.101C389.063 179.086 388.98 179.054 388.906 179.006C388.832 178.959 388.768 178.897 388.717 178.825C388.667 178.753 388.631 178.671 388.612 178.585C388.593 178.499 388.592 178.41 388.607 178.323C388.642 178.15 388.743 177.997 388.888 177.896C389.033 177.795 389.211 177.754 389.386 177.781C390.418 178.038 391.374 178.539 392.174 179.241C392.973 179.942 393.594 180.825 393.983 181.815C394.019 181.896 394.039 181.983 394.041 182.071C394.043 182.159 394.028 182.247 393.996 182.33C393.964 182.412 393.916 182.488 393.855 182.551C393.793 182.615 393.72 182.666 393.639 182.701L393.368 182.72Z" fill="#1A2E35"/>
<path d="M375.213 194.931C374.653 194.933 374.099 194.805 373.597 194.557C373.094 194.309 372.656 193.948 372.317 193.502C371.466 192.175 370.898 190.687 370.649 189.13C370.4 187.574 370.475 185.982 370.869 184.456C371.901 178.74 375.485 174.09 378.869 174.09C379.432 174.098 379.987 174.232 380.491 174.483C380.995 174.733 381.437 175.094 381.783 175.537C382.635 176.864 383.203 178.353 383.452 179.909C383.701 181.466 383.626 183.057 383.231 184.583C382.2 190.3 378.598 194.931 375.213 194.931ZM378.833 174.597C375.666 174.597 372.263 179.083 371.267 184.583C370.634 188.201 371.141 191.458 372.625 193.212C372.926 193.604 373.312 193.922 373.754 194.141C374.196 194.361 374.683 194.476 375.177 194.479C378.363 194.479 381.747 190.01 382.743 184.511C383.127 183.057 383.204 181.539 382.971 180.053C382.737 178.568 382.197 177.147 381.385 175.881C381.092 175.489 380.713 175.169 380.277 174.947C379.84 174.724 379.359 174.604 378.869 174.597H378.833Z" fill="#F9F9F9"/>
<path d="M389.277 196.74C388.691 196.732 388.114 196.591 387.591 196.328C387.067 196.064 386.61 195.686 386.254 195.22C385.442 194.002 384.892 192.629 384.639 191.187C384.387 189.745 384.438 188.266 384.788 186.844C385.711 181.526 389.187 177.22 392.535 177.22C393.122 177.235 393.697 177.382 394.22 177.648C394.743 177.914 395.2 178.293 395.558 178.758C396.363 179.976 396.908 181.346 397.161 182.784C397.413 184.222 397.366 185.697 397.024 187.116C396.119 192.453 392.644 196.74 389.277 196.74ZM392.481 177.672C389.331 177.672 386.073 181.815 385.241 186.935C384.916 188.291 384.871 189.699 385.107 191.074C385.344 192.449 385.857 193.761 386.616 194.931C386.94 195.336 387.346 195.666 387.808 195.9C388.27 196.134 388.777 196.266 389.295 196.288C392.445 196.288 395.721 192.163 396.535 187.043C396.857 185.688 396.903 184.281 396.67 182.907C396.437 181.533 395.929 180.221 395.178 179.047C394.856 178.639 394.45 178.305 393.988 178.068C393.526 177.831 393.018 177.696 392.499 177.672H392.481Z" fill="#F9F9F9"/>
<path d="M224.748 601.907C222.938 601.907 221.128 599.121 220.06 597.511C220.024 597.457 220.005 597.394 220.005 597.33C220.005 597.266 220.024 597.203 220.06 597.149C220.099 597.096 220.151 597.055 220.212 597.029C220.272 597.004 220.339 596.995 220.404 597.004C220.983 597.131 225.96 598.216 226.594 599.917C226.666 600.104 226.685 600.308 226.65 600.506C226.615 600.703 226.527 600.888 226.395 601.039C226.225 601.319 225.982 601.548 225.692 601.701C225.401 601.854 225.075 601.925 224.748 601.907ZM220.965 597.837C222.358 599.935 223.716 601.183 224.693 601.238C224.91 601.24 225.124 601.186 225.314 601.081C225.505 600.976 225.665 600.825 225.779 600.641C225.841 600.577 225.882 600.497 225.898 600.41C225.914 600.323 225.904 600.234 225.87 600.152C225.544 599.248 222.956 598.343 220.965 597.837Z" fill="#E19F20"/>
<path d="M221.779 597.837C221.231 597.839 220.685 597.778 220.15 597.656C220.096 597.637 220.046 597.606 220.006 597.565C219.965 597.524 219.934 597.475 219.915 597.421C219.879 597.315 219.879 597.2 219.915 597.095C220.042 596.986 222.811 594.255 224.856 594.255H225.001C225.254 594.271 225.501 594.341 225.726 594.46C225.95 594.578 226.148 594.743 226.304 594.942C226.489 595.135 226.603 595.384 226.63 595.65C226.656 595.915 226.592 596.182 226.449 596.407C225.87 597.384 223.553 597.837 221.779 597.837ZM220.965 597.131C222.666 597.33 225.417 596.842 225.979 596.028C226.069 595.901 226.141 595.702 225.87 595.358C225.775 595.225 225.651 595.116 225.506 595.041C225.361 594.965 225.201 594.925 225.037 594.924C223.482 595.215 222.057 595.987 220.965 597.131Z" fill="#E19F20"/>
<path d="M324.823 637.348C323.324 637.312 321.833 637.13 320.37 636.805C320.3 636.791 320.237 636.755 320.188 636.703C320.14 636.651 320.108 636.586 320.099 636.515C320.09 636.446 320.103 636.377 320.136 636.315C320.168 636.254 320.218 636.204 320.279 636.172C320.949 635.846 326.759 632.951 328.443 633.928C328.595 634.026 328.721 634.16 328.809 634.317C328.897 634.475 328.946 634.652 328.949 634.833C328.969 635.138 328.915 635.443 328.792 635.724C328.669 636.004 328.481 636.25 328.244 636.443C327.236 637.118 326.032 637.436 324.823 637.348ZM321.51 636.371C324.605 636.877 326.94 636.751 327.845 635.973C328.001 635.84 328.122 635.672 328.201 635.484C328.28 635.295 328.313 635.091 328.298 634.887C328.301 634.819 328.286 634.751 328.255 634.69C328.223 634.63 328.175 634.579 328.117 634.543C327.212 634.019 323.99 635.249 321.51 636.353V636.371Z" fill="#E19F20"/>
<path d="M320.461 636.805H320.262C320.209 636.77 320.167 636.721 320.141 636.663C320.115 636.606 320.107 636.542 320.117 636.479C320.117 636.226 320.986 630.473 324.135 630.473H324.407C325.312 630.563 325.565 631.016 325.619 631.396C325.873 632.988 322.361 636.063 320.588 636.823L320.461 636.805ZM324.081 631.088C322.036 631.088 321.131 634.417 320.823 635.864C322.633 634.797 325.04 632.391 324.895 631.432C324.895 631.432 324.895 631.142 324.262 631.088H324.081Z" fill="#E19F20"/>
<path d="M375.086 183.244L377.928 182.991C377.928 182.991 376.136 184.836 375.086 183.244Z" fill="#1A2E35"/>
<path d="M362.652 248.824C339.122 239.905 331.773 226.554 332.334 223.75L335.954 223.967H336.66C337.563 223.991 338.464 224.069 339.357 224.202C341.022 224.347 342.742 224.528 344.479 224.763L346.289 225.016C354.928 226.067 363.48 227.729 371.883 229.991C375.72 231.113 376.987 231.475 379.123 232.235L380.933 232.922L381.693 233.212C383.575 237.264 383.159 245.55 362.652 248.824Z" fill="#FD897B"/>
<path d="M362.652 248.824C339.122 239.905 331.773 226.554 332.334 223.75L335.954 223.967H336.66C341.438 230.751 351.9 240.122 362.561 241.407C371.141 239.598 379.231 237.535 379.159 232.235L380.969 232.922L381.729 233.212C383.575 237.264 383.159 245.55 362.652 248.824Z" fill="#E19F20"/>
<path opacity="0.3" d="M362.652 248.824C339.122 239.905 331.773 226.554 332.334 223.75L335.954 223.967H336.66C341.438 230.751 351.9 240.122 362.561 241.407C371.141 239.598 379.231 237.535 379.159 232.235L380.969 232.922L381.729 233.212C383.575 237.264 383.159 245.55 362.652 248.824Z" fill="black"/>
<path d="M315.103 306.119L311.483 310.678C311.211 311.021 311.61 311.51 312.261 311.636L371.376 323.142C371.883 323.251 372.353 323.142 372.444 322.762L373.928 317.823C374.036 317.48 373.656 317.1 373.095 316.991L316.008 305.883C315.849 305.849 315.684 305.852 315.527 305.893C315.37 305.933 315.225 306.011 315.103 306.119Z" fill="#1A2E35"/>
<path d="M321.529 313.988L320.008 313.699C319.701 313.699 319.501 313.445 319.556 313.246L321.547 306.842C321.547 306.643 321.909 306.553 322.198 306.607L323.737 306.896C324.045 306.896 324.244 307.168 324.189 307.349L322.198 313.771C322.128 313.878 322.024 313.958 321.902 313.998C321.78 314.037 321.648 314.034 321.529 313.988Z" fill="#E19F20"/>
<path opacity="0.3" d="M321.529 313.988L320.008 313.699C319.701 313.699 319.501 313.445 319.556 313.246L321.547 306.842C321.547 306.643 321.909 306.553 322.198 306.607L323.737 306.896C324.045 306.896 324.244 307.168 324.189 307.349L322.198 313.771C322.128 313.878 322.024 313.958 321.902 313.998C321.78 314.037 321.648 314.034 321.529 313.988Z" fill="black"/>
<path d="M325.547 245.333C324.859 249.62 324.207 254.378 323.737 258.829C323.266 263.279 322.85 267.874 322.633 272.505C322.512 274.785 322.44 277.064 322.416 279.344V286.128C322.506 290.558 322.85 294.98 323.447 299.371C323.792 300.873 324.405 302.301 325.257 303.586C326.346 305.344 327.556 307.024 328.877 308.615C331.769 312.048 334.863 315.304 338.144 318.366C341.457 321.55 344.932 324.626 348.498 327.629C352.063 330.632 355.738 333.617 359.358 336.493L355.466 342.5C346.947 337.835 338.802 332.519 331.104 326.598C327.126 323.558 323.375 320.233 319.882 316.648C318.014 314.73 316.301 312.667 314.759 310.479C312.844 307.895 311.483 304.946 310.759 301.813L310.089 297.978C309.854 296.729 309.691 295.481 309.546 294.251C309.184 291.754 308.985 289.276 308.786 286.797C308.409 281.868 308.294 276.922 308.442 271.981C308.587 267.078 308.859 262.194 309.347 257.327C309.836 252.461 310.451 247.685 311.429 242.655L325.547 245.333Z" fill="#FD897B"/>
<path d="M313.528 227.278C305.782 233.537 307.628 252.135 307.628 252.135L333.692 260.71C333.692 260.71 332.497 239.272 331.23 231.565C329.674 222.393 321.13 221.109 313.528 227.278Z" fill="#1A2E35"/>
<path d="M356.172 335.336L367.955 330.958L366.145 342.156C366.145 342.156 357.602 345.231 353.222 341.287L356.172 335.336Z" fill="#FD897B"/>
<path d="M381.983 332.622V341.269L366.145 342.156L367.955 330.958L381.983 332.622Z" fill="#FD897B"/>
<path d="M367.05 322.853L365.53 322.563C365.222 322.563 365.023 322.31 365.077 322.111L367.068 315.707C367.068 315.508 367.43 315.417 367.738 315.472L369.258 315.761C369.566 315.761 369.765 316.032 369.711 316.213L367.72 322.636C367.666 322.817 367.43 322.925 367.05 322.853Z" fill="#E19F20"/>
<path opacity="0.3" d="M367.05 322.853L365.53 322.563C365.222 322.563 365.023 322.31 365.077 322.111L367.068 315.707C367.068 315.508 367.43 315.417 367.738 315.472L369.258 315.761C369.566 315.761 369.765 316.032 369.711 316.213L367.72 322.636C367.666 322.817 367.43 322.925 367.05 322.853Z" fill="black"/>
<path d="M344.298 318.402L342.76 318.113C342.452 318.113 342.253 317.86 342.325 317.661L344.316 311.256C344.316 311.057 344.66 310.967 344.968 311.021L346.507 311.311C346.796 311.311 347.013 311.582 346.941 311.763L344.95 318.185C344.896 318.402 344.606 318.493 344.298 318.402Z" fill="#E19F20"/>
<path opacity="0.3" d="M344.298 318.402L342.76 318.113C342.452 318.113 342.253 317.86 342.325 317.661L344.316 311.256C344.316 311.057 344.66 310.967 344.968 311.021L346.507 311.311C346.796 311.311 347.013 311.582 346.941 311.763L344.95 318.185C344.896 318.402 344.606 318.493 344.298 318.402Z" fill="black"/>
<path d="M229.019 423.891L322.85 628.718C325.001 633.373 328.907 636.989 333.716 638.775C338.525 640.561 343.845 640.373 348.516 638.252L363.412 631.45L708.344 473.606C713.003 471.463 716.624 467.563 718.415 462.759C720.206 457.955 720.021 452.638 717.9 447.97L634.984 267.06L624.124 243.162C621.966 238.513 618.059 234.904 613.253 233.119C608.447 231.334 603.13 231.516 598.459 233.628L238.612 398.256C233.953 400.4 230.331 404.297 228.534 409.099C226.737 413.901 226.911 419.218 229.019 423.891Z" fill="#E19F20"/>
<path opacity="0.1" d="M229.019 423.891L322.85 628.718C325.001 633.373 328.907 636.989 333.716 638.775C338.525 640.561 343.845 640.373 348.516 638.252L363.412 631.45L708.344 473.606C713.003 471.463 716.624 467.563 718.415 462.759C720.206 457.955 720.021 452.638 717.9 447.97L634.984 267.06L624.124 243.162C621.966 238.513 618.059 234.904 613.253 233.119C608.447 231.334 603.13 231.516 598.459 233.628L238.612 398.256C233.953 400.4 230.331 404.297 228.534 409.099C226.737 413.901 226.911 419.218 229.019 423.891Z" fill="white"/>
<path d="M662.146 326.241L267.108 507.014L313.341 607.946L708.379 427.173L662.146 326.241Z" fill="#E19F20"/>
<path opacity="0.3" d="M662.146 326.241L267.108 507.014L313.341 607.946L708.379 427.173L662.146 326.241Z" fill="white"/>
<path d="M645.788 372.934L396.149 487.172L412.696 523.294L662.334 409.057L645.788 372.934Z" fill="#E19F20"/>
<path opacity="0.8" d="M645.788 372.934L396.149 487.172L412.696 523.294L662.334 409.057L645.788 372.934Z" fill="white"/>
<path d="M648.624 289.459L253.269 471.881L278.16 525.772L673.515 343.35L648.624 289.459Z" fill="#E19F20"/>
<path opacity="0.3" d="M648.624 289.459L253.269 471.881L278.16 525.772L673.515 343.35L648.624 289.459Z" fill="black"/>
<path d="M282.668 426.46L363.412 631.378L708.343 473.533C713.003 471.39 716.624 467.491 718.415 462.687C720.205 457.883 720.021 452.566 717.9 447.898L634.984 266.988L293.6 401.368C288.835 403.263 285.012 406.964 282.964 411.664C280.916 416.364 280.81 421.682 282.668 426.46Z" fill="#E19F20"/>
<path d="M739.218 361.686L737.51 362.286L740.336 370.325L742.044 369.725L739.218 361.686Z" fill="#E19F20"/>
<path opacity="0.1" d="M739.218 361.686L737.51 362.286L740.336 370.325L742.044 369.725L739.218 361.686Z" fill="white"/>
<path d="M724.965 321.28L723.257 321.88L734.388 353.56L736.095 352.96L724.965 321.28Z" fill="#E19F20"/>
<path opacity="0.1" d="M724.965 321.28L723.257 321.88L734.388 353.56L736.095 352.96L724.965 321.28Z" fill="white"/>
<path d="M306.687 402.074L680.09 271.004C684.934 269.319 690.248 269.619 694.871 271.84C699.494 274.061 703.05 278.02 704.76 282.854L779.441 495.405C781.128 500.247 780.83 505.56 778.612 510.183C776.395 514.806 772.437 518.365 767.603 520.081L394.2 651.151C389.353 652.827 384.04 652.522 379.417 650.303C374.794 648.084 371.234 644.13 369.512 639.301L294.831 426.75C293.145 421.905 293.445 416.591 295.666 411.967C297.888 407.344 301.85 403.787 306.687 402.074Z" fill="#E19F20"/>
<path opacity="0.1" d="M306.687 402.074L680.09 271.004C684.934 269.319 690.248 269.619 694.871 271.84C699.494 274.061 703.05 278.02 704.76 282.854L779.441 495.405C781.128 500.247 780.83 505.56 778.612 510.183C776.395 514.806 772.437 518.365 767.603 520.081L394.2 651.151C389.353 652.827 384.04 652.522 379.417 650.303C374.794 648.084 371.234 644.13 369.512 639.301L294.831 426.75C293.145 421.905 293.445 416.591 295.666 411.967C297.888 407.344 301.85 403.787 306.687 402.074Z" fill="white"/>
<path d="M733.349 364.194L323.419 508.08L355.906 600.543L765.836 456.657L733.349 364.194Z" fill="#E19F20"/>
<path opacity="0.3" d="M733.349 364.194L323.419 508.08L355.906 600.543L765.836 456.657L733.349 364.194Z" fill="white"/>
<path d="M684.279 319.194L599.541 348.938L604.176 362.132L688.915 332.389L684.279 319.194Z" fill="#E19F20"/>
<path opacity="0.8" d="M684.279 319.194L599.541 348.938L604.176 362.132L688.915 332.389L684.279 319.194Z" fill="white"/>
<path d="M741.054 480.775L673.068 504.638L675.491 511.534L743.477 487.671L741.054 480.775Z" fill="#E19F20"/>
<path opacity="0.8" d="M741.054 480.775L673.068 504.638L675.491 511.534L743.477 487.671L741.054 480.775Z" fill="white"/>
<path d="M745.678 493.968L658.07 524.719L660.493 531.614L748.101 500.864L745.678 493.968Z" fill="#E19F20"/>
<path opacity="0.8" d="M745.678 493.968L658.07 524.719L660.493 531.614L748.101 500.864L745.678 493.968Z" fill="white"/>
<path d="M433.298 594.701L389.494 610.076L394.705 624.909L438.509 609.534L433.298 594.701Z" fill="#E19F20"/>
<path opacity="0.8" d="M433.298 594.701L389.494 610.076L394.705 624.909L438.509 609.534L433.298 594.701Z" fill="white"/>
<path d="M667.51 467.653L718.661 449.707C721.357 448.748 723.566 446.764 724.807 444.186C726.047 441.607 726.219 438.644 725.285 435.94C724.326 433.245 722.341 431.037 719.761 429.797C717.182 428.557 714.217 428.385 711.511 429.319L660.343 447.283C657.646 448.242 655.438 450.227 654.197 452.805C652.957 455.383 652.784 458.346 653.718 461.05C654.681 463.746 656.671 465.953 659.254 467.19C661.837 468.426 664.805 468.593 667.51 467.653Z" fill="#E19F20"/>
<path d="M579.888 498.408L631.056 480.444C633.733 479.481 635.924 477.506 637.159 474.946C638.395 472.385 638.575 469.442 637.663 466.749C636.7 464.057 634.713 461.854 632.134 460.617C629.555 459.381 626.592 459.212 623.889 460.146L572.738 478.11C570.042 479.069 567.833 481.054 566.593 483.632C565.352 486.21 565.18 489.173 566.114 491.877C567.091 494.556 569.084 496.743 571.661 497.965C574.239 499.187 577.194 499.346 579.888 498.408Z" fill="#E19F20"/>
<path d="M492.32 529.163L543.489 511.199C546.158 510.228 548.341 508.251 549.569 505.691C550.798 503.131 550.973 500.192 550.059 497.504C549.096 494.812 547.109 492.609 544.53 491.372C541.951 490.136 538.988 489.966 536.285 490.9L485.08 508.793C482.387 509.755 480.182 511.741 478.945 514.319C477.709 516.897 477.539 519.858 478.474 522.56C479.436 525.269 481.435 527.485 484.031 528.723C486.626 529.961 489.608 530.119 492.32 529.163Z" fill="#E19F20"/>
<path d="M404.662 559.918L455.83 541.953C458.51 540.994 460.705 539.021 461.944 536.46C463.183 533.899 463.367 530.954 462.455 528.258C461.492 525.567 459.505 523.363 456.926 522.127C454.347 520.891 451.384 520.721 448.681 521.655L397.512 539.62C394.816 540.579 392.607 542.563 391.367 545.141C390.126 547.719 389.954 550.683 390.888 553.387C391.865 556.066 393.858 558.252 396.435 559.474C399.013 560.696 401.968 560.856 404.662 559.918Z" fill="#E19F20"/>
<g opacity="0.8">
<path d="M667.51 467.653L718.66 449.707C721.357 448.748 723.566 446.764 724.806 444.186C726.047 441.607 726.219 438.644 725.285 435.94C724.325 433.245 722.34 431.037 719.761 429.797C717.181 428.557 714.217 428.385 711.511 429.319L660.342 447.283C657.646 448.242 655.437 450.227 654.197 452.805C652.956 455.383 652.784 458.346 653.718 461.05C654.681 463.746 656.671 465.953 659.254 467.19C661.837 468.426 664.804 468.593 667.51 467.653Z" fill="white"/>
<path d="M579.888 498.408L631.056 480.444C633.733 479.481 635.924 477.506 637.159 474.946C638.395 472.385 638.575 469.442 637.663 466.749C636.7 464.057 634.713 461.854 632.134 460.617C629.555 459.381 626.592 459.212 623.889 460.146L572.738 478.11C570.042 479.069 567.833 481.054 566.593 483.632C565.352 486.21 565.18 489.173 566.114 491.877C567.091 494.556 569.084 496.743 571.661 497.965C574.239 499.187 577.194 499.346 579.888 498.408Z" fill="white"/>
<path d="M492.32 529.163L543.489 511.199C546.158 510.228 548.341 508.251 549.569 505.691C550.798 503.131 550.973 500.192 550.059 497.504C549.096 494.812 547.109 492.609 544.53 491.372C541.951 490.136 538.988 489.966 536.285 490.9L485.08 508.793C482.387 509.755 480.182 511.741 478.945 514.319C477.709 516.897 477.539 519.858 478.474 522.56C479.436 525.269 481.435 527.485 484.031 528.723C486.626 529.961 489.608 530.119 492.32 529.163Z" fill="white"/>
<path d="M404.662 559.918L455.83 541.953C458.51 540.994 460.705 539.021 461.944 536.46C463.183 533.899 463.367 530.954 462.455 528.258C461.492 525.567 459.505 523.363 456.926 522.127C454.347 520.891 451.384 520.721 448.681 521.655L397.512 539.62C394.816 540.579 392.607 542.563 391.367 545.141C390.126 547.719 389.954 550.683 390.888 553.387C391.865 556.066 393.858 558.252 396.435 559.474C399.013 560.696 401.968 560.856 404.662 559.918Z" fill="white"/>
</g>
<path d="M694.097 369.531L648.569 385.512C644.702 386.869 642.668 391.103 644.026 394.968L653.513 421.971C654.871 425.836 659.107 427.869 662.974 426.512L708.503 410.531C712.37 409.174 714.404 404.94 713.046 401.075L703.558 374.072C702.2 370.207 697.964 368.174 694.097 369.531Z" fill="#E19F20"/>
<path opacity="0.3" d="M694.097 369.531L648.569 385.512C644.702 386.869 642.668 391.103 644.026 394.968L653.513 421.971C654.871 425.836 659.107 427.869 662.974 426.512L708.503 410.531C712.37 409.174 714.404 404.94 713.046 401.075L703.558 374.072C702.2 370.207 697.964 368.174 694.097 369.531Z" fill="black"/>
<path d="M419.341 419.712C418.206 416.469 416.442 413.482 414.15 410.92C411.859 408.359 409.085 406.275 405.986 404.786C402.888 403.297 399.527 402.434 396.094 402.245C392.662 402.055 389.226 402.544 385.983 403.684L349.204 417.487L348.733 417.614L347.647 418.066L346.977 418.319C341.039 421 336.361 425.864 333.917 431.901C331.472 437.938 331.448 444.684 333.85 450.738C336.252 456.793 340.895 461.689 346.815 464.412C352.734 467.134 359.476 467.472 365.638 465.356L400.463 453.778C401.466 453.553 402.457 453.275 403.431 452.946C404.152 452.693 404.859 452.404 405.549 452.077C411.467 449.368 416.161 444.549 418.712 438.563C421.263 432.577 421.487 425.855 419.341 419.712Z" fill="#E19F20"/>
<path opacity="0.8" d="M419.341 419.712C418.206 416.469 416.442 413.482 414.15 410.92C411.859 408.359 409.085 406.275 405.986 404.786C402.888 403.297 399.527 402.434 396.094 402.245C392.662 402.055 389.226 402.544 385.983 403.684L349.204 417.487L348.733 417.614L347.647 418.066L346.977 418.319C341.039 421 336.361 425.864 333.917 431.901C331.472 437.938 331.448 444.684 333.85 450.738C336.252 456.793 340.895 461.689 346.815 464.412C352.734 467.134 359.476 467.472 365.638 465.356L400.463 453.778C401.466 453.553 402.457 453.275 403.431 452.946C404.152 452.693 404.859 452.404 405.549 452.077C411.467 449.368 416.161 444.549 418.712 438.563C421.263 432.577 421.487 425.855 419.341 419.712Z" fill="white"/>
</g>
<defs>
<clipPath id="clip0_46_2181">
<rect width="905" height="674" fill="white"/>
</clipPath>
</defs>
</svg>
