<svg width="104" height="104" viewBox="0 0 104 104" fill="none" xmlns="http://www.w3.org/2000/svg">
<circle cx="51.9999" cy="52" r="0.52" stroke="#E19F20" stroke-width="0.0105051"/>
<circle cx="52.0001" cy="52" r="1.56" stroke="#E19F20" stroke-width="0.0315152"/>
<circle cx="51.9998" cy="52" r="2.6" stroke="#E19F20" stroke-width="0.0525253"/>
<circle cx="52" cy="52" r="3.64" stroke="#E19F20" stroke-width="0.0735354"/>
<circle cx="52.0002" cy="52" r="4.68" stroke="#E19F20" stroke-width="0.0945455"/>
<circle cx="51.9999" cy="52" r="5.72" stroke="#E19F20" stroke-width="0.115556"/>
<circle cx="52.0002" cy="52" r="6.76" stroke="#E19F20" stroke-width="0.136566"/>
<circle cx="51.9999" cy="52" r="7.8" stroke="#E19F20" stroke-width="0.157576"/>
<circle cx="52.0001" cy="52" r="8.84" stroke="#E19F20" stroke-width="0.178586"/>
<circle cx="51.9998" cy="52" r="9.88" stroke="#E19F20" stroke-width="0.199596"/>
<circle cx="52" cy="52" r="10.92" stroke="#E19F20" stroke-width="0.220606"/>
<circle cx="52.0002" cy="52" r="11.96" stroke="#E19F20" stroke-width="0.241616"/>
<circle cx="52" cy="52" r="13" stroke="#E19F20" stroke-width="0.262626"/>
<circle cx="52.0002" cy="52" r="14.04" stroke="#E19F20" stroke-width="0.283636"/>
<circle cx="51.9999" cy="52" r="15.08" stroke="#E19F20" stroke-width="0.304646"/>
<circle cx="52.0001" cy="52" r="16.12" stroke="#E19F20" stroke-width="0.325657"/>
<circle cx="51.9998" cy="52" r="17.16" stroke="#E19F20" stroke-width="0.346667"/>
<circle cx="52" cy="52" r="18.2" stroke="#E19F20" stroke-width="0.367677"/>
<circle cx="51.9998" cy="52" r="19.24" stroke="#E19F20" stroke-width="0.388687"/>
<circle cx="52" cy="52" r="20.28" stroke="#E19F20" stroke-width="0.409697"/>
<circle cx="52.0002" cy="52" r="21.32" stroke="#E19F20" stroke-width="0.430707"/>
<circle cx="51.9999" cy="52" r="22.36" stroke="#E19F20" stroke-width="0.451717"/>
<circle cx="52.0001" cy="52" r="23.4" stroke="#E19F20" stroke-width="0.472727"/>
<circle cx="51.9999" cy="52" r="24.44" stroke="#E19F20" stroke-width="0.493737"/>
<circle cx="52.0001" cy="52" r="25.48" stroke="#E19F20" stroke-width="0.514748"/>
<circle cx="51.9998" cy="52" r="26.52" stroke="#E19F20" stroke-width="0.535758"/>
<circle cx="52" cy="52" r="27.56" stroke="#E19F20" stroke-width="0.556768"/>
<circle cx="52.0002" cy="52" r="28.6" stroke="#E19F20" stroke-width="0.577778"/>
<circle cx="51.9999" cy="52" r="29.64" stroke="#E19F20" stroke-width="0.598788"/>
<circle cx="52.0002" cy="52" r="30.68" stroke="#E19F20" stroke-width="0.619798"/>
<circle cx="51.9999" cy="52" r="31.72" stroke="#E19F20" stroke-width="0.640808"/>
<circle cx="52.0001" cy="52" r="32.76" stroke="#E19F20" stroke-width="0.661818"/>
<circle cx="51.9998" cy="52" r="33.8" stroke="#E19F20" stroke-width="0.682828"/>
<circle cx="52" cy="52" r="34.84" stroke="#E19F20" stroke-width="0.703838"/>
<circle cx="52.0002" cy="52" r="35.88" stroke="#E19F20" stroke-width="0.724848"/>
<circle cx="52" cy="52" r="36.92" stroke="#E19F20" stroke-width="0.745859"/>
<circle cx="52.0002" cy="52" r="37.96" stroke="#E19F20" stroke-width="0.766869"/>
<circle cx="51.9999" cy="52" r="39" stroke="#E19F20" stroke-width="0.787879"/>
<circle cx="52.0001" cy="52" r="40.04" stroke="#E19F20" stroke-width="0.808889"/>
<circle cx="51.9998" cy="52" r="41.08" stroke="#E19F20" stroke-width="0.829899"/>
<circle cx="52" cy="52" r="42.12" stroke="#E19F20" stroke-width="0.850909"/>
<circle cx="51.9998" cy="52" r="43.16" stroke="#E19F20" stroke-width="0.871919"/>
<circle cx="52" cy="52" r="44.2" stroke="#E19F20" stroke-width="0.892929"/>
<circle cx="52.0002" cy="52" r="45.24" stroke="#E19F20" stroke-width="0.913939"/>
<circle cx="51.9999" cy="52" r="46.28" stroke="#E19F20" stroke-width="0.934949"/>
<circle cx="52.0001" cy="52" r="47.32" stroke="#E19F20" stroke-width="0.95596"/>
<circle cx="51.9999" cy="52" r="48.36" stroke="#E19F20" stroke-width="0.97697"/>
<circle cx="52.0001" cy="52" r="49.4" stroke="#E19F20" stroke-width="0.99798"/>
<circle cx="51.9998" cy="52" r="50.44" stroke="#E19F20" stroke-width="1.01899"/>
<circle cx="52" cy="52" r="51.48" stroke="#E19F20" stroke-width="1.04"/>
</svg>
